<svg aria-hidden="true" style="position: absolute; width: 0; height: 0; overflow: hidden;" version="1.1" xmlns="http://www.w3.org/2000/svg" xmlns:xlink="http://www.w3.org/1999/xlink">
<defs>
<symbol id="icon-mob-menu" viewBox="0 0 32 32">
<path d="M32 10l-16-8-16 8 16 8 16-8zM16 4.655l10.689 5.345-10.689 5.345-10.689-5.345 10.689-5.345zM28.795 14.398l3.205 1.602-16 8-16-8 3.205-1.602 12.795 6.398zM28.795 20.398l3.205 1.602-16 8-16-8 3.205-1.602 12.795 6.398z"></path>
</symbol>
<symbol id="icon-arrow-right-circle" viewBox="0 0 24 24">
<path d="M23 12c0-3.037-1.232-5.789-3.222-7.778s-4.741-3.222-7.778-3.222-5.789 1.232-7.778 3.222-3.222 4.741-3.222 7.778 1.232 5.789 3.222 7.778 4.741 3.222 7.778 3.222 5.789-1.232 7.778-3.222 3.222-4.741 3.222-7.778zM21 12c0 2.486-1.006 4.734-2.636 6.364s-3.878 2.636-6.364 2.636-4.734-1.006-6.364-2.636-2.636-3.878-2.636-6.364 1.006-4.734 2.636-6.364 3.878-2.636 6.364-2.636 4.734 1.006 6.364 2.636 2.636 3.878 2.636 6.364zM8 13h5.586l-2.293 2.293c-0.391 0.391-0.391 1.024 0 1.414s1.024 0.391 1.414 0l4-4c0.092-0.092 0.166-0.202 0.217-0.324 0.101-0.245 0.101-0.521 0-0.766-0.049-0.118-0.121-0.228-0.217-0.324l-4-4c-0.391-0.391-1.024-0.391-1.414 0s-0.391 1.024 0 1.414l2.293 2.293h-5.586c-0.552 0-1 0.448-1 1s0.448 1 1 1z"></path>
</symbol>
<symbol id="icon-arrow-left-circle" viewBox="0 0 24 24">
<path d="M23 12c0-3.037-1.232-5.789-3.222-7.778s-4.741-3.222-7.778-3.222-5.789 1.232-7.778 3.222-3.222 4.741-3.222 7.778 1.232 5.789 3.222 7.778 4.741 3.222 7.778 3.222 5.789-1.232 7.778-3.222 3.222-4.741 3.222-7.778zM21 12c0 2.486-1.006 4.734-2.636 6.364s-3.878 2.636-6.364 2.636-4.734-1.006-6.364-2.636-2.636-3.878-2.636-6.364 1.006-4.734 2.636-6.364 3.878-2.636 6.364-2.636 4.734 1.006 6.364 2.636 2.636 3.878 2.636 6.364zM16 11h-5.586l2.293-2.293c0.391-0.391 0.391-1.024 0-1.414s-1.024-0.391-1.414 0l-4 4c-0.096 0.096-0.168 0.206-0.217 0.324-0.051 0.122-0.076 0.253-0.076 0.383 0 0.256 0.098 0.512 0.293 0.707l4 4c0.391 0.391 1.024 0.391 1.414 0s0.391-1.024 0-1.414l-2.293-2.293h5.586c0.552 0 1-0.448 1-1s-0.448-1-1-1z"></path>
</symbol>
<symbol id="icon-chevrons-up" viewBox="0 0 24 24">
<path d="M17.707 10.293l-5-5c-0.391-0.391-1.024-0.391-1.414 0l-5 5c-0.391 0.391-0.391 1.024 0 1.414s1.024 0.391 1.414 0l4.293-4.293 4.293 4.293c0.391 0.391 1.024 0.391 1.414 0s0.391-1.024 0-1.414zM17.707 17.293l-5-5c-0.391-0.391-1.024-0.391-1.414 0l-5 5c-0.391 0.391-0.391 1.024 0 1.414s1.024 0.391 1.414 0l4.293-4.293 4.293 4.293c0.391 0.391 1.024 0.391 1.414 0s0.391-1.024 0-1.414z"></path>
</symbol>
<symbol id="icon-tiktok" viewBox="0 0 32 32">
<path d="M16.707 0.027c1.747-0.027 3.48-0.013 5.213-0.027 0.107 2.040 0.84 4.12 2.333 5.56 1.493 1.48 3.6 2.16 5.653 2.387v5.373c-1.92-0.067-3.853-0.467-5.6-1.293-0.76-0.347-1.467-0.787-2.16-1.24-0.013 3.893 0.013 7.787-0.027 11.667-0.107 1.867-0.72 3.72-1.8 5.253-1.747 2.56-4.773 4.227-7.88 4.28-1.907 0.107-3.813-0.413-5.44-1.373-2.693-1.587-4.587-4.493-4.867-7.613-0.027-0.667-0.040-1.333-0.013-1.987 0.24-2.533 1.493-4.96 3.44-6.613 2.213-1.92 5.307-2.84 8.2-2.293 0.027 1.973-0.053 3.947-0.053 5.92-1.32-0.427-2.867-0.307-4.027 0.493-0.84 0.547-1.48 1.387-1.813 2.333-0.28 0.68-0.2 1.427-0.187 2.147 0.32 2.187 2.427 4.027 4.667 3.827 1.493-0.013 2.92-0.88 3.693-2.147 0.253-0.44 0.533-0.893 0.547-1.413 0.133-2.387 0.080-4.76 0.093-7.147 0.013-5.373-0.013-10.733 0.027-16.093z"></path>
</symbol>
<symbol id="icon-insta" viewBox="0 0 32 32">
<path d="M16 2.881c4.275 0 4.781 0.019 6.462 0.094 1.563 0.069 2.406 0.331 2.969 0.55 0.744 0.288 1.281 0.638 1.837 1.194 0.563 0.563 0.906 1.094 1.2 1.838 0.219 0.563 0.481 1.412 0.55 2.969 0.075 1.688 0.094 2.194 0.094 6.463s-0.019 4.781-0.094 6.463c-0.069 1.563-0.331 2.406-0.55 2.969-0.288 0.744-0.637 1.281-1.194 1.837-0.563 0.563-1.094 0.906-1.837 1.2-0.563 0.219-1.413 0.481-2.969 0.55-1.688 0.075-2.194 0.094-6.463 0.094s-4.781-0.019-6.463-0.094c-1.563-0.069-2.406-0.331-2.969-0.55-0.744-0.288-1.281-0.637-1.838-1.194-0.563-0.563-0.906-1.094-1.2-1.837-0.219-0.563-0.481-1.413-0.55-2.969-0.075-1.688-0.094-2.194-0.094-6.463s0.019-4.781 0.094-6.463c0.069-1.563 0.331-2.406 0.55-2.969 0.288-0.744 0.638-1.281 1.194-1.838 0.563-0.563 1.094-0.906 1.838-1.2 0.563-0.219 1.412-0.481 2.969-0.55 1.681-0.075 2.188-0.094 6.463-0.094zM16 0c-4.344 0-4.887 0.019-6.594 0.094-1.7 0.075-2.869 0.35-3.881 0.744-1.056 0.412-1.95 0.956-2.837 1.85-0.894 0.888-1.438 1.781-1.85 2.831-0.394 1.019-0.669 2.181-0.744 3.881-0.075 1.713-0.094 2.256-0.094 6.6s0.019 4.887 0.094 6.594c0.075 1.7 0.35 2.869 0.744 3.881 0.413 1.056 0.956 1.95 1.85 2.837 0.887 0.887 1.781 1.438 2.831 1.844 1.019 0.394 2.181 0.669 3.881 0.744 1.706 0.075 2.25 0.094 6.594 0.094s4.888-0.019 6.594-0.094c1.7-0.075 2.869-0.35 3.881-0.744 1.050-0.406 1.944-0.956 2.831-1.844s1.438-1.781 1.844-2.831c0.394-1.019 0.669-2.181 0.744-3.881 0.075-1.706 0.094-2.25 0.094-6.594s-0.019-4.887-0.094-6.594c-0.075-1.7-0.35-2.869-0.744-3.881-0.394-1.063-0.938-1.956-1.831-2.844-0.887-0.887-1.781-1.438-2.831-1.844-1.019-0.394-2.181-0.669-3.881-0.744-1.712-0.081-2.256-0.1-6.6-0.1v0z"></path>
<path d="M16 7.781c-4.537 0-8.219 3.681-8.219 8.219s3.681 8.219 8.219 8.219 8.219-3.681 8.219-8.219c0-4.537-3.681-8.219-8.219-8.219zM16 21.331c-2.944 0-5.331-2.387-5.331-5.331s2.387-5.331 5.331-5.331c2.944 0 5.331 2.387 5.331 5.331s-2.387 5.331-5.331 5.331z"></path>
<path d="M26.462 7.456c0 1.060-0.859 1.919-1.919 1.919s-1.919-0.859-1.919-1.919c0-1.060 0.859-1.919 1.919-1.919s1.919 0.859 1.919 1.919z"></path>
</symbol>
<symbol id="icon-thin-prev" viewBox="0 0 20 20">
<path d="M13.891 17.418c0.268 0.272 0.268 0.709 0 0.979s-0.701 0.271-0.969 0l-7.83-7.908c-0.268-0.27-0.268-0.707 0-0.979l7.83-7.908c0.268-0.27 0.701-0.27 0.969 0s0.268 0.709 0 0.979l-7.141 7.419 7.141 7.418z"></path>
</symbol>
<symbol id="icon-thin-next" viewBox="0 0 20 20">
<path d="M13.25 10l-7.141-7.42c-0.268-0.27-0.268-0.707 0-0.979 0.268-0.27 0.701-0.27 0.969 0l7.83 7.908c0.268 0.271 0.268 0.709 0 0.979l-7.83 7.908c-0.268 0.271-0.701 0.27-0.969 0s-0.268-0.707 0-0.979l7.141-7.417z"></path>
</symbol>
<symbol id="icon-facebook" viewBox="0 0 32 32">
<path d="M19 6h5v-6h-5c-3.86 0-7 3.14-7 7v3h-4v6h4v16h6v-16h5l1-6h-6v-3c0-0.542 0.458-1 1-1z"></path>
</symbol>
<symbol id="icon-youtube" viewBox="0 0 80 32">
<path d="M10.75 5.294c0.007-0.027 0.011-0.046 0.012-0.056l0.033-0.236-1.48-0.008c-1.337-0.008-1.746 0-1.783 0.034-0.018 0.016-0.479 1.77-1.302 4.946-0.392 1.515-0.723 2.725-0.734 2.689s-0.481-1.766-1.044-3.843c-0.563-2.078-1.034-3.789-1.048-3.803-0.019-0.019-1.812-0.028-3.263-0.016-0.21 0.002-0.327-0.41 1.876 6.598 0.305 0.97 0.762 2.344 1.015 3.052 0.292 0.817 0.5 1.448 0.642 1.974 0.251 1.002 0.26 1.63 0.205 2.363-0.063 0.847-0.073 6.826-0.011 6.926 0.047 0.077 2.851 0.112 3.116 0.040 0.042-0.012 0.071-0.053 0.090-0.279 0.066-0.194 0.071-0.968 0.071-4.18v-4.103l0.179-0.566c0.117-0.37 0.413-1.344 0.656-2.163s0.538-1.801 0.654-2.18c1.057-3.447 2.067-6.838 2.094-7.032l0.022-0.158z"></path>
<path d="M26.441 10.27l-0.001 0.214-0.033 0-0.019 5.906-0.018 5.726-0.458 0.467c-0.513 0.522-0.925 0.722-1.297 0.629-0.405-0.102-0.395 0.056-0.429-6.712l-0.031-6.23h-2.947v0.214h-0.034v6.759c0 7.242-0 7.237 0.367 7.965 0.293 0.579 0.719 0.861 1.45 0.958h0c0.962 0.128 2-0.308 2.962-1.244l0.418-0.407v0.701c0 0.606 0.017 0.706 0.127 0.737 0.18 0.050 2.412 0.053 2.653 0.004l0.2-0.041v-0.207l0.034-0.007v-15.472l-2.944 0.039z"></path>
<path d="M18.965 13.323c-0.279-1.198-0.802-2.004-1.664-2.561-1.353-0.875-2.897-0.967-4.331-0.259-1.045 0.516-1.717 1.372-2.065 2.628-0.041 0.15-0.072 0.275-0.095 0.463-0.088 0.443-0.099 1.105-0.122 4.186-0.035 4.748 0.019 5.313 0.614 6.391 0.583 1.058 1.794 1.833 3.112 1.993 0.397 0.048 1.201-0.027 1.663-0.155 1.051-0.291 2.058-1.122 2.504-2.065 0.192-0.407 0.309-0.691 0.379-1.208 0.13-0.707 0.14-1.849 0.14-4.762-0-3.715-0.012-4.121-0.136-4.651zM15.604 23c-0.247 0.188-0.679 0.27-1.031 0.195-0.271-0.058-0.636-0.482-0.748-0.869-0.14-0.482-0.151-7.187-0.030-8.502 0.199-0.658 0.756-1.002 1.364-0.838 0.474 0.128 0.716 0.424 0.854 1.046 0.103 0.461 0.115 1.035 0.093 4.414-0.014 2.241-0.022 3.336-0.096 3.924-0.074 0.371-0.197 0.47-0.407 0.63z"></path>
<path d="M71.887 16.692h1.424l-0.023-1.29c-0.022-1.183-0.039-1.319-0.198-1.64-0.249-0.507-0.617-0.731-1.201-0.731-0.701 0-1.146 0.339-1.356 1.036-0.089 0.296-0.183 2.334-0.116 2.51 0.038 0.098 0.241 0.116 1.469 0.116z"></path>
<path d="M62.369 13.757c-0.19-0.383-0.543-0.571-0.954-0.556-0.319 0.011-0.674 0.146-1.015 0.407l-0.254 0.193v9.269l0.254 0.193c0.576 0.439 1.209 0.532 1.644 0.241 0.172-0.115 0.285-0.274 0.372-0.527 0.114-0.329 0.124-0.75 0.109-4.649-0.015-4.064-0.024-4.303-0.157-4.57z"></path>
<path d="M80.027 9.582c-0.284-3.401-0.509-4.505-1.211-5.923-0.929-1.878-2.272-2.868-4.184-3.086-1.478-0.168-7.041-0.405-12.189-0.52-8.912-0.198-23.564 0.183-25.436 0.662-0.865 0.221-1.513 0.597-2.188 1.269-1.183 1.177-1.887 2.865-2.17 5.2-0.647 5.331-0.66 11.773-0.037 17.297 0.268 2.376 0.82 3.92 1.857 5.192 0.647 0.794 1.761 1.469 2.758 1.67 0.7 0.141 4.201 0.337 9.3 0.521 0.76 0.027 2.771 0.074 4.47 0.105 3.541 0.063 10.051 0.026 13.772-0.079 2.504-0.070 7.069-0.255 7.922-0.321 0.24-0.019 0.796-0.054 1.236-0.079 1.477-0.083 2.417-0.393 3.3-1.086 1.142-0.897 2.027-2.556 2.4-4.501 0.354-1.84 0.59-5.118 0.638-8.839 0.040-3.109-0.013-4.787-0.238-7.482zM44.54 8.35l-1.656 0.020-0.073 17.661-1.435 0.018c-1.11 0.015-1.447-0.001-1.474-0.073-0.019-0.051-0.042-4.032-0.052-8.849l-0.018-8.758-3.234-0.041v-2.76l9.557 0.039 0.041 2.721-1.656 0.020zM54.694 18.472v7.595h-2.616v-0.799c0-0.601-0.023-0.799-0.093-0.799-0.051 0-0.288 0.198-0.527 0.441-0.517 0.526-1.13 0.949-1.653 1.145-1.083 0.405-2.112 0.169-2.551-0.586-0.401-0.691-0.409-0.845-0.409-8.010v-6.58h2.614l0.020 6.196c0.019 6.088 0.022 6.2 0.168 6.448 0.193 0.329 0.488 0.417 0.956 0.288 0.276-0.076 0.464-0.21 0.911-0.654l0.563-0.561v-11.717h2.616v7.595zM64.899 24.982c-0.23 0.513-0.744 1.016-1.165 1.14-1.099 0.324-1.98 0.060-2.998-0.897-0.316-0.297-0.61-0.538-0.654-0.538-0.053 0-0.082 0.233-0.082 0.69v0.69h-2.616v-20.495h2.616v3.343c0 1.839 0.025 3.343 0.054 3.343s0.306-0.244 0.613-0.541c0.707-0.683 1.298-0.981 2.049-1.038 1.338-0.101 2.135 0.587 2.501 2.16 0.114 0.491 0.125 1.051 0.125 5.596-0 5.537-0.001 5.56-0.443 6.546zM75.968 21.943c-0.023 0.57-0.092 1.223-0.154 1.454-0.364 1.349-1.332 2.304-2.732 2.696-1.885 0.527-3.96-0.337-4.788-1.994-0.465-0.93-0.481-1.116-0.481-5.662 0-3.707 0.013-4.162 0.132-4.667 0.336-1.431 1.168-2.357 2.578-2.871 0.408-0.149 0.835-0.225 1.261-0.234 1.521-0.031 3.031 0.787 3.663 2.119 0.427 0.899 0.48 1.283 0.522 3.816l0.039 2.271-5.578 0.039-0.020 1.526c-0.029 2.153 0.116 2.815 0.697 3.207 0.489 0.329 1.24 0.305 1.649-0.055 0.383-0.337 0.491-0.698 0.529-1.753l0.034-0.927h2.694l-0.043 1.036z"></path>
</symbol>
<symbol id="icon-telegram" viewBox="0 0 32 32">
<path d="M16 0c-8.838 0-16 7.162-16 16s7.162 16 16 16 16-7.163 16-16-7.163-16-16-16zM23.863 10.969l-2.625 12.369c-0.181 0.881-0.712 1.087-1.45 0.681l-4-2.956-1.919 1.869c-0.225 0.219-0.4 0.4-0.8 0.4-0.519 0-0.431-0.194-0.606-0.688l-1.363-4.475-3.956-1.231c-0.856-0.262-0.862-0.85 0.194-1.269l15.412-5.95c0.7-0.319 1.381 0.169 1.113 1.25z"></path>
</symbol>
<symbol id="icon-logo" viewBox="0 0 100 32">
<path fill="#3e3c3d" style="fill: var(--color1, #3e3c3d)" d="M10.216 13.439c0.637 1.014 1.273 2.029 1.903 3.048 0.75 1.212 1.514 2.415 2.274 3.62l0.252 0.4h0.473c2.061 0 4.123 0 6.184 0h1.602l-0.889-1.333c-1.064-1.596-2.114-3.202-3.172-4.802-0.925-1.399-1.844-2.802-2.766-4.203 1.431-1.343 2.863-2.685 4.293-4.030 1.607-1.513 3.222-3.018 4.835-4.525l1.589-1.484h-2.175c-1.981 0-3.963 0-5.944 0h-0.352l-0.251 0.247c-1.205 1.19-2.414 2.375-3.623 3.561-0.969 0.95-1.935 1.902-2.903 2.853 0.14-0.69 0.279-1.38 0.419-2.071 0.241-1.188 0.49-2.375 0.731-3.563l0.208-1.028h-1.049c-1.648 0-3.296 0-4.944 0h-0.702l-0.138 0.689c-0.625 3.111-1.245 6.222-1.866 9.333-0.62 3.11-1.241 6.22-1.866 9.329l-0.206 1.026h1.047c1.648 0 3.296 0 4.944 0h0.709l0.133-0.696c0.231-1.203 0.461-2.406 0.701-3.607 0.184-0.921 0.368-1.842 0.547-2.764zM4.037 29.341c-0.060 0.315-0.118 0.63-0.176 0.946-0.081 0.442-0.172 0.882-0.249 1.324l-0.068 0.39h-0.396c-0.861 0-1.722 0-2.583 0h-0.567l0.104-0.557c0.288-1.537 0.572-3.075 0.864-4.612s0.585-3.073 0.873-4.61l0.072-0.384h0.39c1.386 0 2.771 0 4.157 0 1.069 0 2.28 0.225 3.080 0.99 0.766 0.732 0.96 1.737 0.779 2.754-0.001 0.022-0.003 0.044-0.008 0.066-0.215 1.173-0.875 2.129-1.865 2.779s-2.206 0.913-3.378 0.913c-0.344 0-0.688 0-1.032 0zM17.813 26.085c0.069-0.359 0.138-0.718 0.208-1.077 0.168-0.87 0.327-1.742 0.49-2.613l0.105-0.557h-0.567c-0.867 0-1.735 0-2.602 0h-0.39l-0.072 0.384c-0.288 1.537-0.581 3.073-0.873 4.61s-0.576 3.074-0.864 4.612l-0.104 0.557h0.566c0.762 0 1.523 0 2.285 0h0.2l0.139-0.145c0.868-0.905 1.743-1.803 2.618-2.701 0.521-0.534 1.043-1.067 1.565-1.599-0.074 0.394-0.147 0.788-0.223 1.182-0.173 0.902-0.346 1.805-0.51 2.709l-0.101 0.554h0.563c0.867 0 1.735 0 2.602 0h0.39l0.072-0.384c0.288-1.536 0.571-3.073 0.864-4.609 0.293-1.537 0.586-3.075 0.874-4.613l0.104-0.557h-0.566c-0.806 0-1.613 0-2.419 0h-0.197l-0.138 0.141c-0.854 0.869-1.706 1.738-2.555 2.612-0.486 0.5-0.975 0.997-1.464 1.494zM32.745 24.843c-0.032 0.168-0.064 0.336-0.097 0.504 0.568 0 1.135 0 1.703 0 0.976 0 2.114 0.157 2.874 0.827 0.719 0.634 0.874 1.529 0.715 2.441-0.001 0.018-0.004 0.036-0.007 0.053-0.195 1.002-0.716 1.848-1.555 2.437-0.949 0.666-2.123 0.895-3.266 0.895-1.552 0-3.104 0-4.656 0h-0.567l0.104-0.557c0.288-1.537 0.572-3.075 0.864-4.612s0.585-3.073 0.873-4.61l0.072-0.384h0.39c2.547 0 5.095 0 7.642 0h0.563l-0.101 0.554c-0.125 0.689-0.259 1.375-0.384 2.064l-0.070 0.386h-0.393c-1.569 0-3.138 0-4.706 0zM48.303 30.265c-1.076 0-2.151 0-3.227 0-0.313 0.499-0.62 1.001-0.922 1.506l-0.137 0.229h-0.267c-0.906 0-1.811 0-2.717 0h-0.854l0.457-0.722c0.98-1.549 1.967-3.093 2.947-4.642 0.984-1.554 1.987-3.095 2.977-4.645l0.139-0.217h0.258c0.829 0 1.658 0 2.487 0h0.363l0.092 0.352c0.403 1.548 0.802 3.096 1.201 4.645s0.815 3.093 1.228 4.638l0.158 0.591h-0.612c-0.928 0-1.856 0-2.784 0h-0.373l-0.085-0.364c-0.106-0.458-0.218-0.914-0.327-1.372zM61.765 26.882c0.136 0.601 0.268 1.202 0.4 1.804 0.217 0.988 0.444 1.973 0.684 2.955l0.088 0.359h0.369c0.957 0 1.914 0 2.871 0h0.608l-0.153-0.589c-0.403-1.544-0.8-3.090-1.189-4.638-0.388-1.546-0.758-3.096-1.142-4.642l-0.089-0.357h-0.368c-0.79 0-1.581 0-2.371 0h-0.259l-0.138 0.219c-0.981 1.55-1.978 3.090-2.949 4.646-0.967 1.55-1.946 3.091-2.909 4.643l-0.446 0.718h0.845c0.941 0 1.882 0 2.823 0h0.269l0.136-0.232c0.578-0.985 1.174-1.96 1.756-2.943 0.384-0.65 0.775-1.296 1.165-1.942zM75.272 25.108c0.060-0.317 0.12-0.634 0.18-0.952 0.11-0.585 0.229-1.168 0.353-1.75l0.121-0.568h-0.581c-0.867 0-1.734 0-2.602 0h-0.388l-0.074 0.381c-0.297 1.536-0.581 3.075-0.874 4.613s-0.576 3.074-0.864 4.612l-0.104 0.557h0.567c0.867 0 1.735 0 2.602 0h0.4l0.064-0.395c0.096-0.593 0.196-1.185 0.305-1.775 0.081-0.437 0.167-0.874 0.253-1.311 0.338 0.498 0.678 0.994 1.019 1.491 0.412 0.601 0.831 1.198 1.252 1.792l0.141 0.198h0.243c1.079 0 2.157 0 3.235 0h0.924l-0.544-0.747c-0.577-0.792-1.165-1.575-1.735-2.371-0.485-0.678-0.975-1.353-1.458-2.033 0.722-0.654 1.451-1.3 2.17-1.956 0.822-0.75 1.652-1.492 2.483-2.233l0.92-0.821h-1.233c-1.040 0-2.080 0-3.12 0h-0.184l-0.135 0.125c-0.63 0.583-1.253 1.174-1.876 1.764-0.486 0.46-0.972 0.921-1.458 1.38zM88.010 30.265c-0.312 0.501-0.616 1.008-0.925 1.511l-0.138 0.224h-0.263c-0.902 0-1.805 0-2.707 0h-0.85l0.451-0.72c0.974-1.553 1.971-3.092 2.948-4.643 0.98-1.557 1.987-3.096 2.978-4.646l0.139-0.217h0.258c0.832 0 1.664 0 2.496 0h0.368l0.089 0.357c0.384 1.55 0.791 3.094 1.189 4.64 0.399 1.549 0.815 3.093 1.228 4.638l0.158 0.591h-0.612c-0.928 0-1.856 0-2.784 0h-0.367l-0.089-0.357c-0.114-0.459-0.223-0.919-0.335-1.379-1.077 0-2.154 0-3.231 0zM4.586 26.436c0.276 0 0.553 0 0.829 0 0.568 0 1.215-0.213 1.354-0.822 0.001-0.022 0.004-0.043 0.008-0.065 0.025-0.13 0.039-0.304-0.039-0.42-0.153-0.228-0.642-0.261-0.882-0.261-0.324 0-0.649 0-0.973 0-0.055 0.292-0.112 0.583-0.169 0.874-0.045 0.231-0.087 0.462-0.129 0.693zM32.1 28.212c-0.053 0.286-0.106 0.573-0.159 0.859 0.483 0 0.966 0 1.449 0 0.376 0 0.91-0.095 0.998-0.535 0.004-0.021 0.010-0.041 0.016-0.060 0.003-0.035 0.002-0.073-0.011-0.098-0.075-0.143-0.548-0.166-0.677-0.166-0.539 0-1.078 0-1.617 0zM46.811 27.374c0.283 0 0.566 0 0.85 0-0.062-0.256-0.126-0.512-0.184-0.769-0.017-0.077-0.035-0.154-0.052-0.232-0.077 0.124-0.154 0.249-0.23 0.374-0.128 0.209-0.256 0.418-0.383 0.627zM89.749 27.374c0.28 0 0.56 0 0.841 0-0.062-0.257-0.124-0.515-0.18-0.774-0.016-0.076-0.033-0.153-0.050-0.229-0.078 0.125-0.155 0.25-0.232 0.376-0.127 0.209-0.253 0.418-0.38 0.627zM41.81 16.995c-2.055 0-4.111 0-6.167 0-0.624 1.030-1.244 2.063-1.863 3.096l-0.25 0.416h-0.486c-1.725 0-3.45 0-5.174 0h-1.541l0.813-1.31c1.944-3.133 3.894-6.261 5.838-9.394 1.948-3.139 3.908-6.27 5.869-9.401l0.252-0.402h0.475c1.581 0 3.161 0 4.742 0h0.689l0.149 0.672c0.692 3.132 1.38 6.266 2.077 9.397s1.404 6.262 2.115 9.39l0.238 1.048h-1.074c-1.763 0-3.527 0-5.29 0h-0.699l-0.141-0.685c-0.193-0.942-0.387-1.884-0.571-2.827zM68.316 6.229c1.631 0 3.262 0 4.894 0h0.705l0.137-0.691c0.289-1.462 0.587-2.922 0.875-4.384l0.202-1.024h-1.043c-5.383 0-10.766 0-16.148 0h-0.7l-0.14 0.686c-0.298 1.462-0.597 2.925-0.886 4.389l-0.202 1.024h1.044c1.514 0 3.029 0 4.543 0-0.407 2.039-0.821 4.077-1.229 6.115-0.476 2.38-0.952 4.76-1.415 7.142l-0.198 1.021h1.040c1.657 0 3.315 0 4.972 0h0.707l0.135-0.694c0.462-2.379 0.937-4.756 1.413-7.132 0.43-2.151 0.868-4.3 1.296-6.452zM89.782 14.791c-0.754 0.85-1.503 1.705-2.248 2.563-0.829 0.955-1.674 1.895-2.497 2.854l-0.257 0.299h-0.394c-1.924 0-3.847 0-5.771 0h-1.915l1.275-1.429c0.974-1.091 1.947-2.183 2.927-3.269 0.733-0.813 1.465-1.627 2.197-2.441-0.787-0.498-1.442-1.168-1.875-2.029-0.621-1.235-0.673-2.642-0.412-3.979 0.006-0.030 0.013-0.060 0.022-0.089 0.459-2.239 1.64-4.097 3.547-5.367 1.951-1.3 4.355-1.775 6.669-1.775 2.76 0 5.521 0 8.281 0h1.050l-0.21 1.029c-0.634 3.108-1.254 6.218-1.875 9.328-0.62 3.109-1.24 6.219-1.856 9.329l-0.137 0.691h-0.704c-1.654 0-3.309 0-4.963 0h-1.048l0.207-1.027c0.192-0.953 0.385-1.905 0.577-2.858 0.123-0.61 0.242-1.221 0.363-1.831-0.318 0-0.636 0-0.955 0zM38.964 11.334c0.593 0 1.186 0 1.779 0-0.115-0.567-0.232-1.134-0.337-1.703-0.033-0.178-0.067-0.357-0.101-0.535-0.165 0.273-0.33 0.546-0.494 0.819-0.283 0.472-0.565 0.946-0.847 1.419zM91.869 9.127c0.2-0.991 0.397-1.983 0.596-2.974-0.833 0.002-1.666 0.005-2.499-0.002-1.155-0.010-2.226 0.384-2.505 1.586-0.003 0.029-0.007 0.057-0.013 0.086-0.052 0.258-0.075 0.589 0.075 0.821 0.27 0.416 1.052 0.483 1.489 0.483 0.952 0 1.905 0 2.857 0z"></path>
<path fill="#242318" style="fill: var(--color2, #242318)" d="M8.229 20.507c0.172-0.292 0.21-0.405-0.138-0.561-0.21-0.094-0.519-0.162-0.674-0.261 0.035-0.148 0.002-0.116 0.179-0.225 0.391-0.241 0.179 0.025 0.407-0.428 0.148-0.296 0.088 0.104 0.135-0.327-0.373 0.021-0.348 0.109-0.596 0.002-0.373-0.16-0.544-0.59-0.734-0.699-0.131-0.075-0.386-0.071-0.586-0.070-0.051-1.033 0.129-0.997 0.245-1.968 0.056-0.465-0.286-1.652 0.168-1.751 0.124-0.202 0.149-0.095 0.434-0.19 0.879-0.293 0.543-0.159 0.713-0.432 0.178-0.285 0.044 0.119 0.448-0.628 0.006-0.012 0.013-0.028 0.019-0.040 0.246-0.453 0.806-0.346 1.237-0.861 0.518-0.619 0.22 0.042 0.469-1.028 0.18-0.775 0.176-0.073 0.374-0.784l0.129-0.462c0.048-0.138 0.146-0.209 0.228-0.292-0.127-0.114-0.148-0.099-0.265-0.175 0.416-0.167 0.080 0.038 0.155-0.536 0.006-0.049-0.008 0.016 0.049-0.135 0.030-0.080 0.042-0.039 0.039-0.145-0.006-0.197-0.15-0.289-0.265-0.38-0.289-0.231-0.203-0.096-0.344-0.374-0.1-0.196-0.053-0.24-0.119-0.359-0.006-0.010-0.018-0.026-0.024-0.034l-0.094-0.072c0.195-0.306-0.029-0.322-0.096-0.63-0.008-0.038-0.011-0.2-0.012-0.245-0.142 0.12-0.087-0.002-0.159 0.205 0.002-0.016 0.003-0.038 0.003-0.050-0.003-0.19-0.036-0.392-0.252-0.465-0.107-0.036-0.249-0.032-0.321-0.007-0.205 0.070-0.136 0.057-0.165 0.189l0.002-0.226c-0.361-0.002-0.603-0.072-0.898-0.054-0.065 0.077-0.24 0.483-0.114 0.104-0.523 0.009-0.414 0.036-0.462 0.121-0.101-0.313 0.028-0.043-0.259-0.309-0.009-0.008-0.020-0.022-0.029-0.031-0.111-0.107 0.111-0.066-0.2-0.144-0.19-0.048-0.189 0.083-0.399-0.143-0.071-0.076-0.017-0.028-0.081-0.098-0.012-0.013-0.046-0.049-0.059-0.062-0.382-0.364-0.514-0.136-0.765 0.051-0.519 0.387-0.442 0.499-0.428 1.202-0.144 0.072-0.216 0.11-0.256 0.135l-0.661 3.315c-0.62 3.11-1.241 6.22-1.866 9.329l-0.206 1.026h4.261c0.058-0.012 0.117-0.018 0.176-0.013l0.009 0.013h0.491l0.024-0.044c0.513 0.015 0.285 0.034 0.543-0.166 0.126 0.099 0.229 0.183 0.386 0.21h0.204zM5.842 1.97l0.12-0.074c0.109-0.061-0.009-0.006 0.129-0.060 0.925-0.362 1.206-0.761 1.732-0.206 0.119-0.043 0.146-0.034 0.293-0.070l0.305-0.127c0-0 0.085-0.064 0.107-0.079l0.244-0.105c0.347-0.022 0.59 0.194 0.825 0.432 0.19 0.193-0.129 0.096 0.284 0.144l0.321 0.524c0.008 0.009 0.018 0.024 0.025 0.033l0.269 0.444c0.012 0.014 0.054 0.052 0.066 0.063 0.159 0.148 0.406 0.037 0.646 0.034 0.38-0.005 0.211-0.072 0.351-0.343 0.078 0.062 0.029 0.032 0.166 0.098 0.007 0.34-0.061 0.399 0.218 0.671l0.186 0.177c0.021 0.019 0.045 0.036 0.072 0.052 0.166-0.806 0.334-1.612 0.497-2.419l0.208-1.028h-1.049c-1.648 0-3.296 0-4.944 0h-0.702l-0.138 0.689-0.231 1.151zM17.993 8.371c-0.17 0.090-0.048-0.094-0.317 0.269-0.077 0.103-0.144 0.136-0.196 0.213l0.514-0.482zM16.677 11.080c0.687 1.045 1.374 2.091 2.063 3.135-0.363 0.227-0.239 0.014-0.555 0.040-0.239 0.020-0.009 0.073-0.304 0.069l-0.454-0.108c-0.051-0.543 0.178-0.59-0.108-0.975l-0.088-0.119c-0.003-0.006-0.009-0.023-0.013-0.029-0.097-0.191 0.102-0.145-0.303-0.164l-0.037-0.326c-0.041-0.084-0.025-0.041-0.078-0.1-0.249-0.278-0.218-0.197-0.232-0.66-0.083-0.062 0.018-0.062-0.218-0.087 0.327-0.092 0.096-0.041 0.149-0.227 0.050-0.174 0.111-0.322 0.176-0.449zM19.049 14.684l0.482 0.731c-0.008 0.012-0.019 0.029-0.035 0.050-0.067-0.177-0.014-0.114-0.201-0.171l-0.172 0.127c-0.224 0.186 0.111-0.015-0.106 0.093l-0.019-0.235c-0.029-0.174-0.059-0.355-0.158-0.497 0.062-0.040 0.144-0.064 0.209-0.098zM20.258 16.518l0 0.113c0.046 0.021 0.083 0.041 0.113 0.060l-0.114-0.173zM89.589 0.196c0.488-0.045 0.977-0.066 1.461-0.066h5.019c0.011 0.046 0.023 0.090 0.038 0.133 0.005 0.015 0.012 0.029 0.017 0.045 0.064 0.2 0.105 0.362-0.085 0.561-0.21 0.22-0.086 0.204-0.198-0.034-0.024 0.374-0.023 0.159-0.165 0.32-0.008 0.009-0.021 0.022-0.029 0.031s-0.020 0.022-0.028 0.032l-0.053 0.066c-0.319 0.455 0.159 0.895-0.101 1.427l-0.057 0.093c-0.217-0.013-0.259-0.043-0.419-0.082-0.291 0.197-0.536 0.416-0.653 0.729-0.135 0.36-0.022 0.154-0.338 0.398-0.139 0.107-0.204 0.174-0.327 0.309-0.265 0.003-0.179-0.059-0.459-0.054-0.104-0.482-0.394-0.336-0.354-0.882-0.023-0.013 0.073-0.186-0.184-0.025 0.025-0.17-0.006-0.031 0.034-0.108l0.091-0.121-0.446-0.009c-0.203-0.477-0.235 0.010-0.416-0.422-0.044-0.106 0.007-0.046-0.078-0.138l-0.314-0.144c-0.097-0.016-0.112 0.027-0.125-0.059l-0.030-0.144c-0.069-0.276-0.015-0.55-0.011-0.847-0.194 0.049-0.207-0.009-0.499 0.062-0.446 0.11-0.518-0.062-0.746-0.383l-0.402-0.466c-0.053-0.075-0.079-0.139-0.125-0.198l-0.020-0.025zM0.402 29.848c0.187-1.006 0.375-2.011 0.566-3.016 0.177-0.932 0.355-1.863 0.531-2.795l0.469 0.548c0.008 0.010 0.018 0.025 0.025 0.036 0.115 0.165 0.092 0.21 0.269 0.32 0.555 0.342 0.728 0.076 0.966 0.229l0.066 0.054c0.010 0.007 0.023 0.019 0.034 0.027 0.44 0.309 0.184 0.089 0.332 0.454 0.081 0.2 0.332 0.33 0.501 0.445 0.177 0.12 0.134-0.028 0.206 0.291 0.032 0.145 0.025 0.265 0.070 0.397 0.113 0.326 0.224 0.857 0.108 1.17 0.333 0.156 0.101-0.127 0.282 0.221 0.266-0.075 0.195-0.075 0.43 0.062 0.281 0.164 0.787 0.223 0.966 0.477 0.042 0.059 0.065 0.121 0.16 0.206l0.231 0.205c-0.509 0.112-1.032 0.163-1.547 0.163-0.344 0-0.688 0-1.032 0-0.060 0.315-0.118 0.63-0.176 0.946-0.081 0.442-0.172 0.882-0.249 1.324l-0.068 0.39h-0.396c-0.861 0-1.722 0-2.583 0h-0.567l0.104-0.557 0.065-0.349c0.058 0.002 0.114-0.008 0.163-0.038 0.158-0.088-0.016 0.015 0.162-0.194l0.092-0.093c0.194-0.21 0.11-0.194 0.17-0.428-0.434-0.476-0.166-0.325-0.355-0.494zM44.307 31.515l-0.153 0.256-0.137 0.229h-0.267c-0.906 0-1.811 0-2.717 0h-0.854l0.457-0.722c0.387-0.611 0.775-1.222 1.163-1.832 0.386 0.262 0.433-0.031 0.807-0.029 0.205 0.301-0.132 0.359 0.37 0.37-0.044 0.413 0.149 0.542 0.245 0.889 0.156 0.031 0.259 0.026 0.346 0.133l0.295 0.368c0.047-0.109-0.053-0.040 0.075-0.070-0 0-0.025-0.16-0.072 0.034-0.022 0.092-0 0.11 0.009 0.148l0.201-0.009c0.184-0.103 0.041-0.103 0.038-0.109-0.009 0.188-0.017 0.096-0.042 0.181l-0.032 0.18c-0 0.006-0 0.025 0.004 0.036 0.090 0.032 0.178-0.008 0.265-0.052zM37.031 26.020c0.067 0.048 0.132 0.099 0.194 0.154 0.719 0.634 0.874 1.529 0.715 2.441-0.001 0.018-0.004 0.036-0.007 0.053-0.195 1.002-0.716 1.848-1.555 2.437-0.949 0.666-2.123 0.895-3.266 0.895-1.552 0-3.104 0-4.656 0h-0.567l0.104-0.557c0.288-1.537 0.572-3.075 0.864-4.612l0.098-0.514c0.273-0.1 0.495-0.314 0.565-0.632 0.499-0.005 0.459-0.14 0.715-0.469 0.262-0.337 0.896-0.284 1.222-0.015 0.118 0.098 0.195 0.299 0.239 0.425l0.042 0.139c0.004 0.013 0.011 0.030 0.014 0.043 0.082 0.277-0.032 0.514 0.004 0.783 0.159 0.032 0.165-0.023 0.291-0.070l0.452-0.184c0.463-0.296 0.773-0.34 0.987-0.446l0.248-0.176c0.093-0.060 0.037 0.114 0.129-0.169 0.177-0.020 0.36-0.070 0.484 0.007l0.102 0.047c0.213 0.051 0.696-0.035 1.035 0.019 0.255 0.040 0.109 0.005 0.121-0.015l0.086 0.258c0.352 0.024 0.325 0.049 0.589 0.098 0.168 0.031 0.275-0.029 0.555 0.024 0.070 0.013 0.134 0.027 0.194 0.037zM24.19 26.93l-0.015 0.077c-0.293 1.535-0.576 3.073-0.864 4.609l-0.072 0.384h-0.39c-0.867 0-1.735 0-2.602 0h-0.563l0.101-0.554c0.083-0.46 0.169-0.919 0.256-1.378l0.424-0.065c0.081-0.014 0.299-0.014 0.394-0.009 0.018-0.2 0.010-0.405-0.002-0.601-0.011-0.179 0.017-0.301-0.132-0.428 0.166-0.16 0.103-0.017 0.134-0.188 0.088-0.499-0.121 0.059-0.017-0.226 0.052-0.142 0.386-0.247 0.495-0.318 0.16-0.103 0.299-0.073 0.446-0.21 0.097-0.091 0.115-0.158 0.18-0.24l0.232-0.208c-0.119-0.035-0.104 0.003-0.084-0.082 0.169 0.062 0.366-0.149 0.52-0.167 0.434-0.053 0.677 0.214 0.961 0.162l0.338-0.19c0.060-0.054 0.16-0.2 0.261-0.367zM19.177 28.924l-0.225 0.23c-0.875 0.898-1.75 1.796-2.618 2.701l-0.139 0.145h-0.2c-0.762 0-1.523 0-2.285 0h-0.097l-0.019-0.102c-0.205-0.042-0.268-0.075-0.281-0.214-0.027-0.277 0-0.071 0.036-0.1-0.123 0.012-0.073 0.070-0.132 0.026l0.031-0.167c0.146-0.78 0.291-1.561 0.437-2.341l0.122-0.13c-0.032-0.073-0.056-0.108-0.075-0.123 0.087-0.467 0.175-0.933 0.263-1.4 0.203 0.105-0.127 0.101 0.323 0.102l0.388 0.116c0.169 0.068 0.368-0.003 0.505-0.054 0.044-0.129 0.072-0.126 0.010-0.225 0.433 0.082-0.026-0.196 0.295 0.092 0.072 0.065 0.062 0.048 0.127 0.107-0 0.287-0.089 0.509 0.214 0.555 0.303 0.046 0.312-0.183 0.205-0.334l0.598 0.131c0.029-0.22-0.016-0.265 0.005-0.473 0.039-0.383 0.057-0.093 0.115-0.372 0.081-0.392-0.023-0.398 0.191-0.76l0.476 0.076c-0.182 0.233-0.099 0.116 0.063 0.22 0.128 0.082 0.248 0.070 0.411 0.075l0.081 0.637c0.022 0.142 0.023 0.095 0.041 0.141l0.105 0.197c0.089 0.145 0.203 0.156 0.244 0.286 0 0 0.008 0.145 0.030 0.21l0.754 0.748zM1.71 22.926l0.132-0.705 0.072-0.384h4.515c-0.315 0.527-0.243 0.589-0.801 0.802-0.201 0.077-0.331 0.053-0.543 0.018-0.226-0.332-0.132-0.542-0.736-0.526l-0.124 0.248c-0.025 0.045-0.099 0.148-0.149 0.202-0.076 0.082-0.098 0.087-0.184 0.177-0.425 0.443-0.139 0.632-1.163 0.502-0.457-0.265-0.536-0.172-0.784-0.229l-0.111-0.042c-0.012-0.005-0.028-0.014-0.039-0.020l-0.084-0.043zM30.028 14.555c0.985-1.583 1.97-3.167 2.953-4.751 1.32-2.127 2.646-4.251 3.974-6.374 0.521 0.21 0.346-0.063 0.847-0.080l0.090 0.406-0.129 0.071c-0.009 0.006-0.027 0.016-0.036 0.024-0.072 0.054-0.109 0.077-0.148 0.153-0.099 0.192-0.018 0.053-0.039 0.247l-0.088 0.344c-0.038 0.118-0.015 0.115-0.1 0.204-0.386 0.408-0.485 0.029-1.032 0.071l-0.254 0.543c-0.094 0.165-0.175 0.817-0.23 1.080-0.093 0.445 0.068 0.595-0.224 0.871-0.185 0.175-0.136 0.051-0.186 0.346-0.161 0.941-0.167 0.371 0.109 0.844 0.041 0.071 0.114 0.223 0.126 0.359 0.038 0.417-0.2 0.3-0.235 0.764 0.19 0.010 0.624 0.082 0.629 0.081l0.512-0.303c0.127-0.213-0.172-0.308 0.186-0.59 0.010-0.008 0.027-0.019 0.036-0.026l0.075-0.050c-0.045-0.053-0.098-0.092-0.124-0.245-0.093-0.557 0.244-0.285 0.448-0.68 0.147-0.285-0.031 0.074 0.040-0.081 0.042-0.091 0.065-0.155 0.056-0.229-0.024-0.187-0.168-0.234-0.201-0.442-0.046-0.288 0.086-0.308-0.035-0.597 0.375-0.297 0.079-0.181 0.411-0.539 0.262 0.053 0.279 0.118 0.581 0.319l0.197 0.141c0.395-0.037 0.256-0.274 0.665-0.041-0.047 0.139 0.006 0.048-0.060 0.144-0.075 0.052-0.125-0.082-0.13 0.218-0.002 0.122 0.052 0.18 0.174 0.2 0.187 0.031 0.203-0.025 0.322-0.059l0.611-0.199c0.002-0.011 0.007-0.031 0.009-0.043 0.003-0.016 0.008-0.066 0.011-0.083l0.099-0.273c0.092-0.174 0.148-0.181 0.325-0.271l0.519-0.322c0.323-0.258 0.557-0.585 1.036-0.529 0.242 0.028 0.136 0.12 0.37 0.009 0.037 0.204 0.012 0.287 0.245 0.36-0.027-0.014 0.059-0.148-0.114 0.017-0.123 0.118-0.055 0.012-0.111 0.215l0.247 0.016c0.007-0.001 0.029 0.003 0.033-0.009s0.021-0.006 0.030-0.012l0.010 0.19c0.001-0.009 0.013 0.029 0.020 0.043 0.056-0 0.2 0.002 0.241-0.002 0.145-0.016 0.099-0.013 0.166-0.043l0.468 0.327c0.016 0.008 0.063 0.030 0.080 0.038l0.694 0.427c-0.082 0.187-0.006 0.092-0.18 0.24l0.142 0.039c0.006-0.015 0.032 0.013 0.047 0.021l-0.131 0.57c-0.136 0.012 0.071-0.024 0.088 0.209-0.223 0.157-0.31 0.299-0.463 0.502-0.102 0.136-0.099 0.076-0.122 0.28-0.017 0.157-0.129 0.361-0.274 0.452-0.435 0.272 0.032 0.46-0.659 0.489 0.061 0.047 0.035-0.18 0.032 0.088-0.002 0.172-0.149 0.284-0.231 0.428l-0.108 0.247c-0.469-0.034-0.761 0.114-1.14-0.003-0.206-0.063-0.451-0.144-0.688-0.158-0.034-0.176-0.068-0.351-0.101-0.527-0.033-0.178-0.067-0.357-0.101-0.535-0.165 0.273-0.33 0.546-0.494 0.819-0.199 0.332-0.397 0.665-0.596 0.997-0.018 0.004-0.034 0.007-0.050 0.008l-0.044 0.149-0.157 0.264h0.079l-0.133 0.449c0.615 0.595 0.275 0.434 0.279 0.765 0.002 0.181 0.044-0.142 0.062 0.258l-0.323 0.054c-0.063 0.166 0.198 0.733-0.924 0.363l-0.589-0.097c-0.303 0.138-0.441 0.153-0.445 0.473-0 0.014 0.001 0.031 0.001 0.046-0.003 0.129-0.008 0.145-0.018 0.262-0.037 0.417 0.071 0.629-0.295 0.786-0.131 0.056-0.338 0.095-0.442 0.103-0.563 0.046-0.885 0.775-1.53 0.626-0.135 0.59-0.17 0.118-0.256 0.462-0.018-0.007-0.037-0.020-0.050-0.026l-0.846-0.376c-0.251-0.185 0.055 0.032-0.067-0.054-0.378-0.266-0.403-0.413-1.011-0.444-0.131 1.394 0.002 0.457-0.39 1.209-0.054 0.111-0.162 0.313-0.219 0.398-0.132 0.196-0.154 0.18-0.44 0.149-0.163-0.241 0.024-0.135-0.247-0.275-0.354-0.183-0.494-0.167-0.683-0.341-0.257-0.236-0.159-0.103-0.292-0.189-0.245-0.158-0.205-0.448-0.138-0.722 0.058-0.236 0.010-0.427-0.022-0.657zM80.543 30.766c0.119 0.162 0.238 0.325 0.357 0.487l0.544 0.747h-1.238c-0.004-0.076-0.014-0.162-0.028-0.259-0.157 0.039 0.389-0.194 0.416-0.629 0.001-0.013 0.001-0.030 0.001-0.043l-0.053-0.304zM72.771 32h-2.332l0.104-0.557c0.288-1.537 0.572-3.075 0.864-4.612s0.577-3.076 0.874-4.613l0.074-0.381h0.388c0.867 0 1.734 0 2.602 0h0.581l-0.121 0.568c-0.124 0.582-0.243 1.165-0.353 1.75-0.060 0.317-0.119 0.635-0.18 0.952 0.487-0.459 0.973-0.919 1.458-1.38l0.098-0.093c0.020-0.002 0.057 0.009 0.136 0.061l-0.069 0.584c0.084-0.041 0.224-0.456 0.537-0.157 0.224 0.214 0.048 0.336 0.467 0.586l0.237 0.148c0.139 0.087 0.040 0.025 0.142 0.103 0.136 0.103-0.043 0.006 0.177 0.115 0.086 0.043 0.073 0.023 0.164 0.077 0.188 0.112 0.262 0.252 0.486 0.218 0.011 0.072 0.025 0.133 0.038 0.186-0.479 0.431-0.959 0.859-1.436 1.292 0.338 0.477 0.681 0.952 1.022 1.427-0.027 0-0.054-0.004-0.079-0.014l-0.053-0.031c-0.094-0.080 0.048 0.119-0.054-0.077-0.056-0.108 0.044-0.026-0.077-0.198-0.39-0.019-0.233-0.030-0.506 0.069-0.094-0.537-0.422-0.425-0.875-0.476-0.427-0.048-0.186-0.117-0.542-0.212-0.211-0.056-0.29-0.058-0.423-0.173l-0.085-0.077c-0.174 0.129-0.929 0.115-1.14 0.362l0.275 0.316c0.044 0.084 0.052 0.128 0.047 0.237-0.010 0.23-0.122 0.256-0.2 0.451-0.071 0.175-0.136 0.254-0.231 0.295l-0.156-0.229-0.053 0.272c-0.063 0.006-0.135 0.012-0.219 0.021 0.129 0.207 0.001 0.249-0.086 0.383-0.085 0.13-0.152 0.317-0.196 0.454-0.176 0.554-0.106 0.398-0.464 0.512-0.038 0.387-0.021 0.032 0.051 0.197l0.039 0.169c-0.113 0.317-0.085 0.044-0.324 0.292-0.161 0.167-0.023 0.148-0.331 0.288-0.102 0.046-0.455 0.178-0.352 0.012-0.004 0.621-0.063 0.737 0.077 0.881zM77.035 23.44c0.522-0.494 1.045-0.988 1.572-1.476l0.135-0.125h0.184c1.040 0 2.080 0 3.12 0h1.072c-0.014 0.005-0.032 0.010-0.058 0.017-0.245 0.069-0.33 0.366-0.69 0.417 0.118 0.21 0.070 0.104-0.021 0.273-0.046 0.086-0.154 0.22-0.214 0.249-0.047 0.023-0.234 0.035-0.376 0.015-0.281-0.039-0.125 0.051-0.283-0.173-0.12 0.173 0.048 0.11-0.29 0.126-0.284 0.013-0.002 0.009-0.266-0.076-0.26 0.451-0.082 0.033-0.754 0.238l-0.079 0.012c-0.26 0.019-0.158-0.047-0.364 0.193-0.1-0.098-0.109-0.169-0.239-0.212-0.489 0.259-0.225 0.401-0.958 0.338l-0.158 0.164c-0.235 0.136-0.309 0.026-0.531 0.124-0.119 0.052-0.057 0.051-0.269 0.102l-0.203-0.131c-0.155-0.046 0.045 0.012-0.111-0.009-0.173-0.024 0.012 0.020-0.127-0.022-0.035-0.010-0.077-0.037-0.092-0.044zM95.924 20.507h-0.324c-1.654 0-3.309 0-4.963 0h-1.048l0.207-1.027c0.192-0.953 0.385-1.905 0.577-2.858 0.123-0.61 0.242-1.221 0.363-1.831-0.318 0-0.636 0-0.955 0-0.754 0.85-1.503 1.705-2.248 2.563-0.829 0.955-1.674 1.895-2.497 2.854l-0.257 0.299h-0.394c-1.924 0-3.847 0-5.771 0h-1.915l1.275-1.429c0.974-1.091 1.947-2.183 2.927-3.269 0.376-0.417 0.751-0.833 1.126-1.25 0.007 0.019 0.016 0.043 0.030 0.072 0.83 0.048 0.701 0.225 0.865-0.968 0.187 0.034 0.202 0.107 0.292 0.251 0.478-0.067 0.418-0.33 0.759 0.097 0.41-0.006 0.624 0.064 0.775-0.255-0.156-0.183-0.182-0.102-0.337-0.257-0.227-0.228-0.043-0.583-0.4-0.858-0.129-0.099-0.278-0.159-0.427-0.054-0.16 0.112-0.074 0.222-0.364 0.188-0.162-0.019-0.374-0.144-0.482-0.178-0.148-0.047-0.401-0.057-0.652-0.046-0.341-0.352-0.633-0.755-0.862-1.211-0.621-1.235-0.673-2.642-0.412-3.979 0.006-0.030 0.013-0.060 0.022-0.089 0.459-2.239 1.64-4.097 3.547-5.367 0.667-0.445 1.387-0.793 2.139-1.058 0.371 0.047 0.511 0.162 0.926 0.193 0.198 0.311-0.067 0.193 0.416 0.331 0.031 0.79-0.053 0.563 0.12 0.832 0.181 0.281 0.248 0.473 0.242 0.9-0.008 0.582-0.598 1.318-0.059 1.607 0.332 0.090 0.175 0.065 0.423 0.193 0.139 0.072 0.241 0.096 0.391 0.14-0.135 0.178 0.069 0.702-0.064 1.145-0.004 0.013-0.015 0.033-0.018 0.043-0.008 0.022-0.015 0.040-0.023 0.057-0.387 0.114-0.728 0.305-0.985 0.594-0.148 0.022-0.282 0.009-0.382 0.104-0.107 0.192-0.016 0.21-0.146 0.403l-0.14 0.155c-0.079 0.090-0.079 0.086-0.137 0.165 0.276 0.3 0.13 0.33 0.201 0.772 0.042 0.26 0.063 0.098 0.049 0.323-0.010 0.156-0.036 0.265-0.063 0.402l0.315 0.289c0.13 0.284-0.035 0.247-0.147 0.43 0.159 0.103 0.165 0.123 0.307 0.478 0.477-0.067 0.356-0.153 0.512-0.28 0 0 0.906-0.332 1.15-0.246 0.013 0.005 0.030 0.012 0.043 0.017 0.003 0.001 0.121 0.048 0.128 0.052 0.112 0.064 0.021-0.014 0.102 0.077 0.094 0.105-0.079-0.126 0.053 0.079l0.048 0.094c0.111-0.043 0.103 0.067 0.143-0.107 0.040 0.049 0.027 0.035-0.061 0.178 0.152-0.004 0.296-0.003 0.374 0.013 0.178 0.036-0.078 0.092 0.311 0.048 0.057-0.242 0.010-0.124-0.002-0.298l0.151-0.008c-0.181 0.14-0.115 0.035-0.114 0.321 0.279 0.22 0.338 0.18 0.465 0.293l0.042 0.043c0.005 0.005 0.018 0.018 0.024 0.023l0.15 0.135c0.109 0.075-0.182 0.024 0.194 0.089 0.299 0.052 0.314-0.023 0.412-0.178-0.473 0.428-0.314 0.174-0.376 0.466 0.288 0.153 0.726 0.104 0.542 1.066 0.246 0.060 0 0.063 0.539 0.194 0.123 0.030 0.046 0.011 0.123 0.035l0.095 0.033c0.139 0.051 0.081 0.056 0.23 0.078 0.298 0.043 0.251-0.094 0.563 0.030 0.092 0.036 0.029-0.015 0.117 0.063 0.126 0.113 0.147 0.231 0.058 0.357 0.294 0.091 0.208 0.103 0.323 0.333 0.056 0.112 0.017 0.103 0.164 0.186 0.027 0.015 0.091 0.038 0.128 0.055 0.408 0.177 0.18 0.045 0.368 0.077 0.119 0.021 0.051 0.010 0.11 0.039l0.069 0.044c0.011 0.006 0.025 0.016 0.037 0.023l0.079 0.043c0.372 0.216 0.076 0.146 0.398 0.252 0.048 0.196 0.094 0.101 0.516 0.526l0.063 0.060c0.249 0.223 0.297 0.138 0.414 0.245 0.232 0.865 0.206 0.409 0.323 1.009 0.101 0.515 0.207 0.135 0.080 0.622 0.081 0.005 0.161 0.019 0.242 0.038-0.212 1.064-0.423 2.128-0.633 3.192l-0.137 0.691h-0.093c-0.075-0.048-0.15-0.086-0.21-0.096-0.031 0.035-0.056 0.067-0.077 0.096zM64.304 22.145c0.383 1.542 0.752 3.088 1.139 4.629 0.389 1.548 0.787 3.093 1.189 4.638l0.153 0.589h-0.608c-0.957 0-1.914 0-2.871 0h-0.369l-0.088-0.359c-0.24-0.982-0.467-1.968-0.684-2.955-0.132-0.602-0.265-1.203-0.4-1.804-0.39 0.647-0.78 1.293-1.165 1.942-0.582 0.983-1.178 1.958-1.756 2.943l-0.11 0.187c-0.195-0.267-0.697-0.78-0.863-1.034-0.061-0.588-0.485-0.463-0.595-0.81-0.083-0.261 0.036 0.059-0.003-0.1-0.217 0.075-0.241-0.013-0.386 0.174-0.061-0.329-0.119-0.305-0.424-0.344 0.239-0.221 0.012-0.093-0.151-0.311 0.605-0.963 1.212-1.925 1.814-2.89 0.971-1.556 1.968-3.096 2.949-4.646l0.138-0.219h0.648l0.002 0.024c0.19-0.045 0.397 0.067 0.564 0.149l0.279 0.313c0.021 0.43-0.382 0.644-0.010 0.751-0.058 0.066 0.112 0.206-0.161 0.099 0.24 0.015 0.383-0.174 0.608-0.218 0.187-0.037 0.419 0.022 0.419 0.022 0.134-0.004 0.686-0.682 0.687-0.684 0.020-0.031 0.037-0.059 0.052-0.084zM63.327 20.507h-4.574l0.198-1.021c0.197-1.014 0.396-2.027 0.597-3.040 0.036 0.005 0.075 0.009 0.12 0.012 0.158-0.035 0.204-0.124 0.351-0.19 0.231-0.104 0.264-0.065 0.471-0.183 0.064-0.589-0.038-0.103-0.189-0.558-0.078-0.237-0.046-0.558-0.067-0.811-0.071-0.043-0.118-0.060-0.174-0.083l-0.136-0.075c0.147-0.738 0.295-1.476 0.443-2.214 0.264-1.319 0.531-2.637 0.796-3.956 0.288 0.142 0.644 0.265 1.080-0.196l0.057-0.065c0.63-0.729 0.372-0.999 0.624-1.354 0.172-0.241 0.545-0.131 0.513-0.548-0.014-0.183-0.137-0.407-0.065-0.613 0.060-0.172-0.021-0.11 0.134-0.175 0.084-0.178 0.1-0.1 0.39-0.128 0.174-0.017 0.375-0.047 0.563-0.052 0.035 0.051 0.022 0.049 0.055 0.127l0.071 0.165 0.31-0.085c0.284-0.016 0.384 0.134 0.706 0.147-0.051-0.105-0.036-0.043-0.081-0.099-0.138-0.173-0.002 0.109-0.108-0.143 0.242 0 0.393-0.035 0.467-0.237 0.031-0.085 0.104-0.473 0.104-0.595-0.073-0.038-0.139-0.046-0.239-0.072-0.016-0.004-0.135-0.033-0.148-0.038-0.1-0.039-0.072-0.028-0.123-0.066-0.155-0.115-0.292-0.356-0.4-0.497-0.233-0.303-0.094-0.638-0.105-1.041-0.432-0.006-0.713 0.44-1.171 0.413-0.26-0.016-0.238-0.059-0.472-0.123-0.211-0.058-0.086-0.027-0.184-0.066-0.009-0.004-0.093-0.039-0.126-0.052-0.014-0.006-0.030-0.011-0.044-0.016-0.472-0.189-0.814-0.431-1.024-0.484-0.344-0.087-0.276-0.111-0.576-0.318-0.21-0.146-0.258-0.27-0.341-0.502-0.093-0.263 0.069-0.428 0.115-0.656-0.246-0.322-0.372-0.449-0.536-0.833l-0.020-0.058h8.077c-0.060 0.141-0.036 0.042-0.11 0.183-0.195 0.372-0.495 0.523-0.503 0.757-0.006 0.162 0.008 0.102 0.026 0.145 0.106 0.039-0.016 0.039 0.12-0.010l0.693-0.372c0.253-0.090 0.249-0.307 0.624-0.296 0.006 0 0.024 0.002 0.030 0.002s0.024-0.001 0.032-0.001l0.259-0.033c0.013-0.001 0.030-0.003 0.044-0.004 0.019-0.002 0.076-0.011 0.097-0.013 0.434-0.051 0.375 0.044 0.709 0.044 0.698-0.002 0.019-0.195 0.869 0.15l0.222 0.077c0.014 0.005 0.029 0.012 0.043 0.017s0.029 0.013 0.043 0.018c0.214 0.091 0.355 0.199 0.546 0.102l0.2 0.342c0.174 0.164 0.295 0.174 0.386 0.337 0.014 0.025 0.060 0.161 0.222 0.248 0.094 0.050 0.080 0.054 0.228 0.069-0.018 0.171-0.028 0.152-0.001 0.305l0.026 0.086c0.003 0.009 0.010 0.025 0.013 0.033 0.036 0.112 0.095 0.261-0.029 0.354 0.484-0.030 0.203 0.101 0.219 0.148 0.047 0.135 0.119 0.127 0.227 0.224-0.090 0.205-0.032 0.127-0.117 0.136 0.061-0.004 0.081-0.018 0.145-0.001 0.116 0.030 0.114 0.042 0.163 0.070 0.067 0.676 0.017-0.044 0.191 0.878 0.016 0.087 0.021 0.126 0.024 0.147-0.085 0.422-0.169 0.844-0.252 1.267l-0.137 0.691h-0.705c-1.631 0-3.262 0-4.894 0-0.428 2.151-0.866 4.301-1.296 6.452-0.406 2.032-0.813 4.063-1.211 6.097-0.113 0.047-0.106-0.010-0.319 0.203l-0.655 0.603c-0.145 0.11 0.173 0-0.114 0.070 0.002 0.141-0.006-0.003-0.014-0.003l-0.756 0.121c-0.282 0.143-0.159 0.083-0.269 0.335l-0.354 0.401zM48.552 15.953c0.212 0.938 0.425 1.877 0.638 2.815l-0.31-0.006c-0.091 0.34-0.075 0.39-0.091 0.782 0.356 0.193 0.797 0.471 0.466 0.921l-0.034 0.042h-2.862c-0.003-0.166-0.026-0.329 0.089-0.403-0.053-0.152 0.058-0.021-0.166-0.128 0.021-0.267-0.048-0.248 0.121-0.325l-0.365-0.291c-0.171-0.191-0.322-0.29-0.215-0.636 0.103-0.334 0.678-0.429 1.051-0.64l-0.060-0.086c-0.177-0.314-0.139-0.571 0.116-0.813 0.153-0.144 0.213-0.172 0.388-0.251 0.236-0.108 0.219-0.198 0.5-0.12-0.166-0.337 0.259-0.487 0.482-0.654 0.094-0.070 0.18-0.133 0.253-0.206zM46.004 22.86c0.186-0.289 0.372-0.579 0.557-0.869l0.139-0.217h0.478c-0.010 0.272-0.016 0.227-0.167 0.395-0.394 0.436-0.119 0.753-0.933 0.697-0.026-0.002-0.050-0.004-0.072-0.007zM49.193 18.78l0.045 0.2c-0.081-0.133-0.063-0.181-0.045-0.2zM49.919 22.207c0.183 0.701 0.364 1.403 0.545 2.104-0.031 0.011-0.069 0.024-0.115 0.043l0.017 0.452c-0.206 0.043-0.298 0.119-0.339 0.231-0.006 0.016-0.086 0.238-0.088 0.243-0.046 0.16-0.020 0.226-0.052 0.379-0.056 0.259-0.011 0.020-0.112 0.24-0.072 0.156-0.007 0.002-0.048 0.133l-0.038 0.142c-0.005 0.015-0.010 0.030-0.015 0.045-0.112 0.347-0.078 0.323-0.034 0.651-0.423 0.182-0.002 0.127-0.595 0.479 0.012 0.138 0.025 0.406-0.095 0.585-0.324-0-0.072 0.019-0.336-0.196-0.168-0.137-0.254-0.322-0.352-0.525l-0.059-0.124c-0.016-0.027-0.1-0.128-0.225-0.153-0.225-0.044-0.303-0.046-0.458-0.139-0.015-0.064-0.030-0.127-0.044-0.191-0.017-0.077-0.035-0.154-0.052-0.232l-0.153 0.248c-0.156-0.129-0.129-0.203-0.099-0.591l-0.133-0.12c-0.051-0.093-0.036-0.112-0.041-0.259-0.045-0.003-0.194-0.007-0.237-0.019-0.136-0.039-0.108-0.078-0.256-0.156l-1.104-0.279c0.147-0.38-0.175 0.293 0.082-0.116 0.105-0.167 0.013 0.043 0.043-0.078 0.028-0.115-0.087 0.109 0.009-0.222 0.078-0.269 0.015 0.090 0.093-0.218 0.056-0.22 0.029 0.029 0.008-0.075-0.034-0.17-0.22-0.305-0.416-0.411l0.352-0.548c0.033-0.001 0.061-0.003 0.083-0.006 0.369-0.052 0.036-0.015 0.232-0.079 0.23-0.076 0.12-0.027 0.274-0.024 0.512 0.010 0.245-0.45 1.198-0.055 0.070 0.029 0.168 0.086 0.232 0.13 0.268 0.187 0.383 0.244 0.698 0.243l0.273 0.051c0.163-0.263 0.032-0.225 0.315-0.331 0.313-0.118 0.476-0.112 0.499-0.379 0.006-0.070 0.011-0.174 0.029-0.255l0.231-0.361c0.134-0.117 0.133-0.097 0.28-0.253l0.004-0.004zM88.010 30.265c-0.312 0.501-0.616 1.008-0.925 1.511l-0.138 0.224h-0.263c-0.902 0-1.805 0-2.707 0h-0.85l0.451-0.72c0.974-1.553 1.971-3.092 2.948-4.643 0.98-1.557 1.987-3.096 2.978-4.646l0.139-0.217h0.258c0.832 0 1.664 0 2.496 0h0.368l0.089 0.357c0.384 1.55 0.791 3.094 1.189 4.64 0.399 1.549 0.815 3.093 1.228 4.638l0.158 0.591h-0.612c-0.928 0-1.856 0-2.784 0h-0.367l-0.089-0.357c-0.114-0.459-0.223-0.919-0.335-1.379-1.077 0-2.154 0-3.231 0zM32.1 28.212c-0.053 0.286-0.106 0.573-0.159 0.859 0.483 0 0.966 0 1.449 0 0.376 0 0.91-0.095 0.998-0.535 0.004-0.021 0.010-0.041 0.016-0.060 0.003-0.035 0.002-0.073-0.011-0.098-0.075-0.143-0.548-0.166-0.677-0.166-0.539 0-1.078 0-1.617 0zM89.749 27.374c0.28 0 0.56 0 0.841 0-0.062-0.257-0.124-0.515-0.18-0.774-0.016-0.076-0.033-0.153-0.050-0.229-0.078 0.125-0.155 0.25-0.232 0.376-0.127 0.209-0.253 0.418-0.38 0.627z"></path>
</symbol>
<symbol id="icon-logo-inverse" viewBox="0 0 100 32">
<path fill="#f1e8ca" style="fill: var(--color1, #f1e8ca)" d="M10.216 13.439c0.637 1.014 1.273 2.029 1.903 3.048 0.75 1.212 1.514 2.415 2.274 3.62l0.252 0.4h0.473c2.061 0 4.123 0 6.184 0h1.602l-0.889-1.333c-1.064-1.596-2.114-3.202-3.172-4.802-0.925-1.399-1.844-2.802-2.766-4.203 1.431-1.343 2.863-2.685 4.293-4.030 1.607-1.513 3.222-3.018 4.835-4.525l1.589-1.484h-2.175c-1.981 0-3.963 0-5.944 0h-0.352l-0.251 0.247c-1.205 1.19-2.414 2.375-3.623 3.561-0.969 0.95-1.935 1.902-2.903 2.853 0.14-0.69 0.279-1.38 0.419-2.071 0.241-1.188 0.49-2.375 0.731-3.563l0.208-1.028h-1.049c-1.648 0-3.296 0-4.944 0h-0.702l-0.138 0.689c-0.625 3.111-1.245 6.222-1.866 9.333-0.62 3.11-1.241 6.22-1.866 9.329l-0.206 1.026h1.047c1.648 0 3.296 0 4.944 0h0.709l0.133-0.696c0.231-1.203 0.461-2.406 0.701-3.607 0.184-0.921 0.368-1.842 0.547-2.764zM4.037 29.341c-0.060 0.315-0.118 0.63-0.176 0.946-0.081 0.442-0.172 0.882-0.249 1.324l-0.068 0.39h-0.396c-0.861 0-1.722 0-2.583 0h-0.567l0.104-0.557c0.288-1.537 0.572-3.075 0.864-4.612s0.585-3.073 0.873-4.61l0.072-0.384h0.39c1.386 0 2.771 0 4.157 0 1.069 0 2.28 0.225 3.080 0.99 0.766 0.732 0.96 1.737 0.779 2.754-0.001 0.022-0.003 0.044-0.008 0.066-0.215 1.173-0.875 2.129-1.865 2.779s-2.206 0.913-3.378 0.913c-0.344 0-0.688 0-1.032 0zM17.813 26.085c0.069-0.359 0.138-0.718 0.208-1.077 0.168-0.87 0.327-1.742 0.49-2.613l0.105-0.557h-0.567c-0.867 0-1.735 0-2.602 0h-0.39l-0.072 0.384c-0.288 1.537-0.581 3.073-0.873 4.61s-0.576 3.074-0.864 4.612l-0.104 0.557h0.566c0.762 0 1.523 0 2.285 0h0.2l0.139-0.145c0.868-0.905 1.743-1.803 2.618-2.701 0.521-0.534 1.043-1.067 1.565-1.599-0.074 0.394-0.147 0.788-0.223 1.182-0.173 0.902-0.346 1.805-0.51 2.709l-0.101 0.554h0.563c0.867 0 1.735 0 2.602 0h0.39l0.072-0.384c0.288-1.536 0.571-3.073 0.864-4.609 0.293-1.537 0.586-3.075 0.874-4.613l0.104-0.557h-0.566c-0.806 0-1.613 0-2.419 0h-0.197l-0.138 0.141c-0.854 0.869-1.706 1.738-2.555 2.612-0.486 0.5-0.975 0.997-1.464 1.494zM32.745 24.843c-0.032 0.168-0.064 0.336-0.097 0.504 0.568 0 1.135 0 1.703 0 0.976 0 2.114 0.157 2.874 0.827 0.719 0.634 0.874 1.529 0.715 2.441-0.001 0.018-0.004 0.036-0.007 0.053-0.195 1.002-0.716 1.848-1.555 2.437-0.949 0.666-2.123 0.895-3.266 0.895-1.552 0-3.104 0-4.656 0h-0.567l0.104-0.557c0.288-1.537 0.572-3.075 0.864-4.612s0.585-3.073 0.873-4.61l0.072-0.384h0.39c2.547 0 5.095 0 7.642 0h0.563l-0.101 0.554c-0.125 0.689-0.259 1.375-0.384 2.064l-0.070 0.386h-0.393c-1.569 0-3.138 0-4.706 0zM48.303 30.265c-1.076 0-2.151 0-3.227 0-0.313 0.499-0.62 1.001-0.922 1.506l-0.137 0.229h-0.267c-0.906 0-1.811 0-2.717 0h-0.854l0.457-0.722c0.98-1.549 1.967-3.093 2.947-4.642 0.984-1.554 1.987-3.095 2.977-4.645l0.139-0.217h0.258c0.829 0 1.658 0 2.487 0h0.363l0.092 0.352c0.403 1.548 0.802 3.096 1.201 4.645s0.815 3.093 1.228 4.638l0.158 0.591h-0.612c-0.928 0-1.856 0-2.784 0h-0.373l-0.085-0.364c-0.106-0.458-0.218-0.914-0.327-1.372zM61.765 26.882c0.136 0.601 0.268 1.202 0.4 1.804 0.217 0.988 0.444 1.973 0.684 2.955l0.088 0.359h0.369c0.957 0 1.914 0 2.871 0h0.608l-0.153-0.589c-0.403-1.544-0.8-3.090-1.189-4.638-0.388-1.546-0.758-3.096-1.142-4.642l-0.089-0.357h-0.368c-0.79 0-1.581 0-2.371 0h-0.259l-0.138 0.219c-0.981 1.55-1.978 3.090-2.949 4.646-0.967 1.55-1.946 3.091-2.909 4.643l-0.446 0.718h0.845c0.941 0 1.882 0 2.823 0h0.269l0.136-0.232c0.578-0.985 1.174-1.96 1.756-2.943 0.384-0.65 0.775-1.296 1.165-1.942zM75.272 25.108c0.060-0.317 0.12-0.634 0.18-0.952 0.11-0.585 0.229-1.168 0.353-1.75l0.121-0.568h-0.581c-0.867 0-1.734 0-2.602 0h-0.388l-0.074 0.381c-0.297 1.536-0.581 3.075-0.874 4.613s-0.576 3.074-0.864 4.612l-0.104 0.557h0.567c0.867 0 1.735 0 2.602 0h0.4l0.064-0.395c0.096-0.593 0.196-1.185 0.305-1.775 0.081-0.437 0.167-0.874 0.253-1.311 0.338 0.498 0.678 0.994 1.019 1.491 0.412 0.601 0.831 1.198 1.252 1.792l0.141 0.198h0.243c1.079 0 2.157 0 3.235 0h0.924l-0.544-0.747c-0.577-0.792-1.165-1.575-1.735-2.371-0.485-0.678-0.975-1.353-1.458-2.033 0.722-0.654 1.451-1.3 2.17-1.956 0.822-0.75 1.652-1.492 2.483-2.233l0.92-0.821h-1.233c-1.040 0-2.080 0-3.12 0h-0.184l-0.135 0.125c-0.63 0.583-1.253 1.174-1.876 1.764-0.486 0.46-0.972 0.921-1.458 1.38zM88.010 30.265c-0.312 0.501-0.616 1.008-0.925 1.511l-0.138 0.224h-0.263c-0.902 0-1.805 0-2.707 0h-0.85l0.451-0.72c0.974-1.553 1.971-3.092 2.948-4.643 0.98-1.557 1.987-3.096 2.978-4.646l0.139-0.217h0.258c0.832 0 1.664 0 2.496 0h0.368l0.089 0.357c0.384 1.55 0.791 3.094 1.189 4.64 0.399 1.549 0.815 3.093 1.228 4.638l0.158 0.591h-0.612c-0.928 0-1.856 0-2.784 0h-0.367l-0.089-0.357c-0.114-0.459-0.223-0.919-0.335-1.379-1.077 0-2.154 0-3.231 0zM4.586 26.436c0.276 0 0.553 0 0.829 0 0.568 0 1.215-0.213 1.354-0.822 0.001-0.022 0.004-0.043 0.008-0.065 0.025-0.13 0.039-0.304-0.039-0.42-0.153-0.228-0.642-0.261-0.882-0.261-0.324 0-0.649 0-0.973 0-0.055 0.292-0.112 0.583-0.169 0.874-0.045 0.231-0.087 0.462-0.129 0.693zM32.1 28.212c-0.053 0.286-0.106 0.573-0.159 0.859 0.483 0 0.966 0 1.449 0 0.376 0 0.91-0.095 0.998-0.535 0.004-0.021 0.010-0.041 0.016-0.060 0.003-0.035 0.002-0.073-0.011-0.098-0.075-0.143-0.548-0.166-0.677-0.166-0.539 0-1.078 0-1.617 0zM46.811 27.374c0.283 0 0.566 0 0.85 0-0.062-0.256-0.126-0.512-0.184-0.769-0.017-0.077-0.035-0.154-0.052-0.232-0.077 0.124-0.154 0.249-0.23 0.374-0.128 0.209-0.256 0.418-0.383 0.627zM89.749 27.374c0.28 0 0.56 0 0.841 0-0.062-0.257-0.124-0.515-0.18-0.774-0.016-0.076-0.033-0.153-0.050-0.229-0.078 0.125-0.155 0.25-0.232 0.376-0.127 0.209-0.253 0.418-0.38 0.627zM41.81 16.995c-2.055 0-4.111 0-6.167 0-0.624 1.030-1.244 2.063-1.863 3.096l-0.25 0.416h-0.486c-1.725 0-3.45 0-5.174 0h-1.541l0.813-1.31c1.944-3.133 3.894-6.261 5.838-9.394 1.948-3.139 3.908-6.27 5.869-9.401l0.252-0.402h0.475c1.581 0 3.161 0 4.742 0h0.689l0.149 0.672c0.692 3.132 1.38 6.266 2.077 9.397s1.404 6.262 2.115 9.39l0.238 1.048h-1.074c-1.763 0-3.527 0-5.29 0h-0.699l-0.141-0.685c-0.193-0.942-0.387-1.884-0.571-2.827zM68.316 6.229c1.631 0 3.262 0 4.894 0h0.705l0.137-0.691c0.289-1.462 0.587-2.922 0.875-4.384l0.202-1.024h-1.043c-5.383 0-10.766 0-16.148 0h-0.7l-0.14 0.686c-0.298 1.462-0.597 2.925-0.886 4.389l-0.202 1.024h1.044c1.514 0 3.029 0 4.543 0-0.407 2.039-0.821 4.077-1.229 6.115-0.476 2.38-0.952 4.76-1.415 7.142l-0.198 1.021h1.040c1.657 0 3.315 0 4.972 0h0.707l0.135-0.694c0.462-2.379 0.937-4.756 1.413-7.132 0.43-2.151 0.868-4.3 1.296-6.452zM89.782 14.791c-0.754 0.85-1.503 1.705-2.248 2.563-0.829 0.955-1.674 1.895-2.497 2.854l-0.257 0.299h-0.394c-1.924 0-3.847 0-5.771 0h-1.915l1.275-1.429c0.974-1.091 1.947-2.183 2.927-3.269 0.733-0.813 1.465-1.627 2.197-2.441-0.787-0.498-1.442-1.168-1.875-2.029-0.621-1.235-0.673-2.642-0.412-3.979 0.006-0.030 0.013-0.060 0.022-0.089 0.459-2.239 1.64-4.097 3.547-5.367 1.951-1.3 4.355-1.775 6.669-1.775 2.76 0 5.521 0 8.281 0h1.050l-0.21 1.029c-0.634 3.108-1.254 6.218-1.875 9.328-0.62 3.109-1.24 6.219-1.856 9.329l-0.137 0.691h-0.704c-1.654 0-3.309 0-4.963 0h-1.048l0.207-1.027c0.192-0.953 0.385-1.905 0.577-2.858 0.123-0.61 0.242-1.221 0.363-1.831-0.318 0-0.636 0-0.955 0zM38.964 11.334c0.593 0 1.186 0 1.779 0-0.115-0.567-0.232-1.134-0.337-1.703-0.033-0.178-0.067-0.357-0.101-0.535-0.165 0.273-0.33 0.546-0.494 0.819-0.283 0.472-0.565 0.946-0.847 1.419zM91.869 9.127c0.2-0.991 0.397-1.983 0.596-2.974-0.833 0.002-1.666 0.005-2.499-0.002-1.155-0.010-2.226 0.384-2.505 1.586-0.003 0.029-0.007 0.057-0.013 0.086-0.052 0.258-0.075 0.589 0.075 0.821 0.27 0.416 1.052 0.483 1.489 0.483 0.952 0 1.905 0 2.857 0z"></path>
<path fill="rgb(225, 182, 91)" style="fill: var(--color2, rgb(225, 182, 91))" d="M8.229 20.507c0.172-0.292 0.21-0.405-0.138-0.561-0.21-0.094-0.519-0.162-0.674-0.261 0.035-0.148 0.002-0.116 0.179-0.225 0.391-0.241 0.179 0.025 0.407-0.428 0.148-0.296 0.088 0.104 0.135-0.327-0.373 0.021-0.348 0.109-0.596 0.002-0.373-0.16-0.544-0.59-0.734-0.699-0.131-0.075-0.386-0.071-0.586-0.070-0.051-1.033 0.129-0.997 0.245-1.968 0.056-0.465-0.286-1.652 0.168-1.751 0.124-0.202 0.149-0.095 0.434-0.19 0.879-0.293 0.543-0.159 0.713-0.432 0.178-0.285 0.044 0.119 0.448-0.628 0.006-0.012 0.013-0.028 0.019-0.040 0.246-0.453 0.806-0.346 1.237-0.861 0.518-0.619 0.22 0.042 0.469-1.028 0.18-0.775 0.176-0.073 0.374-0.784l0.129-0.462c0.048-0.138 0.146-0.209 0.228-0.292-0.127-0.114-0.148-0.099-0.265-0.175 0.416-0.167 0.080 0.038 0.155-0.536 0.006-0.049-0.008 0.016 0.049-0.135 0.030-0.080 0.042-0.039 0.039-0.145-0.006-0.197-0.15-0.289-0.265-0.38-0.289-0.231-0.203-0.096-0.344-0.374-0.1-0.196-0.053-0.24-0.119-0.359-0.006-0.010-0.018-0.026-0.024-0.034l-0.094-0.072c0.195-0.306-0.029-0.322-0.096-0.63-0.008-0.038-0.011-0.2-0.012-0.245-0.142 0.12-0.087-0.002-0.159 0.205 0.002-0.016 0.003-0.038 0.003-0.050-0.003-0.19-0.036-0.392-0.252-0.465-0.107-0.036-0.249-0.032-0.321-0.007-0.205 0.070-0.136 0.057-0.165 0.189l0.002-0.226c-0.361-0.002-0.603-0.072-0.898-0.054-0.065 0.077-0.24 0.483-0.114 0.104-0.523 0.009-0.414 0.036-0.462 0.121-0.101-0.313 0.028-0.043-0.259-0.309-0.009-0.008-0.020-0.022-0.029-0.031-0.111-0.107 0.111-0.066-0.2-0.144-0.19-0.048-0.189 0.083-0.399-0.143-0.071-0.076-0.017-0.028-0.081-0.098-0.012-0.013-0.046-0.049-0.059-0.062-0.382-0.364-0.514-0.136-0.765 0.051-0.519 0.387-0.442 0.499-0.428 1.202-0.144 0.072-0.216 0.11-0.256 0.135l-0.661 3.315c-0.62 3.11-1.241 6.22-1.866 9.329l-0.206 1.026h4.261c0.058-0.012 0.117-0.018 0.176-0.013l0.009 0.013h0.491l0.024-0.044c0.513 0.015 0.285 0.034 0.543-0.166 0.126 0.099 0.229 0.183 0.386 0.21h0.204zM5.842 1.97l0.12-0.074c0.109-0.061-0.009-0.006 0.129-0.060 0.925-0.362 1.206-0.761 1.732-0.206 0.119-0.043 0.146-0.034 0.293-0.070l0.305-0.127c0-0 0.085-0.064 0.107-0.079l0.244-0.105c0.347-0.022 0.59 0.194 0.825 0.432 0.19 0.193-0.129 0.096 0.284 0.144l0.321 0.524c0.008 0.009 0.018 0.024 0.025 0.033l0.269 0.444c0.012 0.014 0.054 0.052 0.066 0.063 0.159 0.148 0.406 0.037 0.646 0.034 0.38-0.005 0.211-0.072 0.351-0.343 0.078 0.062 0.029 0.032 0.166 0.098 0.007 0.34-0.061 0.399 0.218 0.671l0.186 0.177c0.021 0.019 0.045 0.036 0.072 0.052 0.166-0.806 0.334-1.612 0.497-2.419l0.208-1.028h-1.049c-1.648 0-3.296 0-4.944 0h-0.702l-0.138 0.689-0.231 1.151zM17.993 8.371c-0.17 0.090-0.048-0.094-0.317 0.269-0.077 0.103-0.144 0.136-0.196 0.213l0.514-0.482zM16.677 11.080c0.687 1.045 1.374 2.091 2.063 3.135-0.363 0.227-0.239 0.014-0.555 0.040-0.239 0.020-0.009 0.073-0.304 0.069l-0.454-0.108c-0.051-0.543 0.178-0.59-0.108-0.975l-0.088-0.119c-0.003-0.006-0.009-0.023-0.013-0.029-0.097-0.191 0.102-0.145-0.303-0.164l-0.037-0.326c-0.041-0.084-0.025-0.041-0.078-0.1-0.249-0.278-0.218-0.197-0.232-0.66-0.083-0.062 0.018-0.062-0.218-0.087 0.327-0.092 0.096-0.041 0.149-0.227 0.050-0.174 0.111-0.322 0.176-0.449zM19.049 14.684l0.482 0.731c-0.008 0.012-0.019 0.029-0.035 0.050-0.067-0.177-0.014-0.114-0.201-0.171l-0.172 0.127c-0.224 0.186 0.111-0.015-0.106 0.093l-0.019-0.235c-0.029-0.174-0.059-0.355-0.158-0.497 0.062-0.040 0.144-0.064 0.209-0.098zM20.258 16.518l0 0.113c0.046 0.021 0.083 0.041 0.113 0.060l-0.114-0.173zM89.589 0.196c0.488-0.045 0.977-0.066 1.461-0.066h5.019c0.011 0.046 0.023 0.090 0.038 0.133 0.005 0.015 0.012 0.029 0.017 0.045 0.064 0.2 0.105 0.362-0.085 0.561-0.21 0.22-0.086 0.204-0.198-0.034-0.024 0.374-0.023 0.159-0.165 0.32-0.008 0.009-0.021 0.022-0.029 0.031s-0.020 0.022-0.028 0.032l-0.053 0.066c-0.319 0.455 0.159 0.895-0.101 1.427l-0.057 0.093c-0.217-0.013-0.259-0.043-0.419-0.082-0.291 0.197-0.536 0.416-0.653 0.729-0.135 0.36-0.022 0.154-0.338 0.398-0.139 0.107-0.204 0.174-0.327 0.309-0.265 0.003-0.179-0.059-0.459-0.054-0.104-0.482-0.394-0.336-0.354-0.882-0.023-0.013 0.073-0.186-0.184-0.025 0.025-0.17-0.006-0.031 0.034-0.108l0.091-0.121-0.446-0.009c-0.203-0.477-0.235 0.010-0.416-0.422-0.044-0.106 0.007-0.046-0.078-0.138l-0.314-0.144c-0.097-0.016-0.112 0.027-0.125-0.059l-0.030-0.144c-0.069-0.276-0.015-0.55-0.011-0.847-0.194 0.049-0.207-0.009-0.499 0.062-0.446 0.11-0.518-0.062-0.746-0.383l-0.402-0.466c-0.053-0.075-0.079-0.139-0.125-0.198l-0.020-0.025zM0.402 29.848c0.187-1.006 0.375-2.011 0.566-3.016 0.177-0.932 0.355-1.863 0.531-2.795l0.469 0.548c0.008 0.010 0.018 0.025 0.025 0.036 0.115 0.165 0.092 0.21 0.269 0.32 0.555 0.342 0.728 0.076 0.966 0.229l0.066 0.054c0.010 0.007 0.023 0.019 0.034 0.027 0.44 0.309 0.184 0.089 0.332 0.454 0.081 0.2 0.332 0.33 0.501 0.445 0.177 0.12 0.134-0.028 0.206 0.291 0.032 0.145 0.025 0.265 0.070 0.397 0.113 0.326 0.224 0.857 0.108 1.17 0.333 0.156 0.101-0.127 0.282 0.221 0.266-0.075 0.195-0.075 0.43 0.062 0.281 0.164 0.787 0.223 0.966 0.477 0.042 0.059 0.065 0.121 0.16 0.206l0.231 0.205c-0.509 0.112-1.032 0.163-1.547 0.163-0.344 0-0.688 0-1.032 0-0.060 0.315-0.118 0.63-0.176 0.946-0.081 0.442-0.172 0.882-0.249 1.324l-0.068 0.39h-0.396c-0.861 0-1.722 0-2.583 0h-0.567l0.104-0.557 0.065-0.349c0.058 0.002 0.114-0.008 0.163-0.038 0.158-0.088-0.016 0.015 0.162-0.194l0.092-0.093c0.194-0.21 0.11-0.194 0.17-0.428-0.434-0.476-0.166-0.325-0.355-0.494zM44.307 31.515l-0.153 0.256-0.137 0.229h-0.267c-0.906 0-1.811 0-2.717 0h-0.854l0.457-0.722c0.387-0.611 0.775-1.222 1.163-1.832 0.386 0.262 0.433-0.031 0.807-0.029 0.205 0.301-0.132 0.359 0.37 0.37-0.044 0.413 0.149 0.542 0.245 0.889 0.156 0.031 0.259 0.026 0.346 0.133l0.295 0.368c0.047-0.109-0.053-0.040 0.075-0.070-0 0-0.025-0.16-0.072 0.034-0.022 0.092-0 0.11 0.009 0.148l0.201-0.009c0.184-0.103 0.041-0.103 0.038-0.109-0.009 0.188-0.017 0.096-0.042 0.181l-0.032 0.18c-0 0.006-0 0.025 0.004 0.036 0.090 0.032 0.178-0.008 0.265-0.052zM37.031 26.020c0.067 0.048 0.132 0.099 0.194 0.154 0.719 0.634 0.874 1.529 0.715 2.441-0.001 0.018-0.004 0.036-0.007 0.053-0.195 1.002-0.716 1.848-1.555 2.437-0.949 0.666-2.123 0.895-3.266 0.895-1.552 0-3.104 0-4.656 0h-0.567l0.104-0.557c0.288-1.537 0.572-3.075 0.864-4.612l0.098-0.514c0.273-0.1 0.495-0.314 0.565-0.632 0.499-0.005 0.459-0.14 0.715-0.469 0.262-0.337 0.896-0.284 1.222-0.015 0.118 0.098 0.195 0.299 0.239 0.425l0.042 0.139c0.004 0.013 0.011 0.030 0.014 0.043 0.082 0.277-0.032 0.514 0.004 0.783 0.159 0.032 0.165-0.023 0.291-0.070l0.452-0.184c0.463-0.296 0.773-0.34 0.987-0.446l0.248-0.176c0.093-0.060 0.037 0.114 0.129-0.169 0.177-0.020 0.36-0.070 0.484 0.007l0.102 0.047c0.213 0.051 0.696-0.035 1.035 0.019 0.255 0.040 0.109 0.005 0.121-0.015l0.086 0.258c0.352 0.024 0.325 0.049 0.589 0.098 0.168 0.031 0.275-0.029 0.555 0.024 0.070 0.013 0.134 0.027 0.194 0.037zM24.19 26.93l-0.015 0.077c-0.293 1.535-0.576 3.073-0.864 4.609l-0.072 0.384h-0.39c-0.867 0-1.735 0-2.602 0h-0.563l0.101-0.554c0.083-0.46 0.169-0.919 0.256-1.378l0.424-0.065c0.081-0.014 0.299-0.014 0.394-0.009 0.018-0.2 0.010-0.405-0.002-0.601-0.011-0.179 0.017-0.301-0.132-0.428 0.166-0.16 0.103-0.017 0.134-0.188 0.088-0.499-0.121 0.059-0.017-0.226 0.052-0.142 0.386-0.247 0.495-0.318 0.16-0.103 0.299-0.073 0.446-0.21 0.097-0.091 0.115-0.158 0.18-0.24l0.232-0.208c-0.119-0.035-0.104 0.003-0.084-0.082 0.169 0.062 0.366-0.149 0.52-0.167 0.434-0.053 0.677 0.214 0.961 0.162l0.338-0.19c0.060-0.054 0.16-0.2 0.261-0.367zM19.177 28.924l-0.225 0.23c-0.875 0.898-1.75 1.796-2.618 2.701l-0.139 0.145h-0.2c-0.762 0-1.523 0-2.285 0h-0.097l-0.019-0.102c-0.205-0.042-0.268-0.075-0.281-0.214-0.027-0.277 0-0.071 0.036-0.1-0.123 0.012-0.073 0.070-0.132 0.026l0.031-0.167c0.146-0.78 0.291-1.561 0.437-2.341l0.122-0.13c-0.032-0.073-0.056-0.108-0.075-0.123 0.087-0.467 0.175-0.933 0.263-1.4 0.203 0.105-0.127 0.101 0.323 0.102l0.388 0.116c0.169 0.068 0.368-0.003 0.505-0.054 0.044-0.129 0.072-0.126 0.010-0.225 0.433 0.082-0.026-0.196 0.295 0.092 0.072 0.065 0.062 0.048 0.127 0.107-0 0.287-0.089 0.509 0.214 0.555 0.303 0.046 0.312-0.183 0.205-0.334l0.598 0.131c0.029-0.22-0.016-0.265 0.005-0.473 0.039-0.383 0.057-0.093 0.115-0.372 0.081-0.392-0.023-0.398 0.191-0.76l0.476 0.076c-0.182 0.233-0.099 0.116 0.063 0.22 0.128 0.082 0.248 0.070 0.411 0.075l0.081 0.637c0.022 0.142 0.023 0.095 0.041 0.141l0.105 0.197c0.089 0.145 0.203 0.156 0.244 0.286 0 0 0.008 0.145 0.030 0.21l0.754 0.748zM1.71 22.926l0.132-0.705 0.072-0.384h4.515c-0.315 0.527-0.243 0.589-0.801 0.802-0.201 0.077-0.331 0.053-0.543 0.018-0.226-0.332-0.132-0.542-0.736-0.526l-0.124 0.248c-0.025 0.045-0.099 0.148-0.149 0.202-0.076 0.082-0.098 0.087-0.184 0.177-0.425 0.443-0.139 0.632-1.163 0.502-0.457-0.265-0.536-0.172-0.784-0.229l-0.111-0.042c-0.012-0.005-0.028-0.014-0.039-0.020l-0.084-0.043zM30.028 14.555c0.985-1.583 1.97-3.167 2.953-4.751 1.32-2.127 2.646-4.251 3.974-6.374 0.521 0.21 0.346-0.063 0.847-0.080l0.090 0.406-0.129 0.071c-0.009 0.006-0.027 0.016-0.036 0.024-0.072 0.054-0.109 0.077-0.148 0.153-0.099 0.192-0.018 0.053-0.039 0.247l-0.088 0.344c-0.038 0.118-0.015 0.115-0.1 0.204-0.386 0.408-0.485 0.029-1.032 0.071l-0.254 0.543c-0.094 0.165-0.175 0.817-0.23 1.080-0.093 0.445 0.068 0.595-0.224 0.871-0.185 0.175-0.136 0.051-0.186 0.346-0.161 0.941-0.167 0.371 0.109 0.844 0.041 0.071 0.114 0.223 0.126 0.359 0.038 0.417-0.2 0.3-0.235 0.764 0.19 0.010 0.624 0.082 0.629 0.081l0.512-0.303c0.127-0.213-0.172-0.308 0.186-0.59 0.010-0.008 0.027-0.019 0.036-0.026l0.075-0.050c-0.045-0.053-0.098-0.092-0.124-0.245-0.093-0.557 0.244-0.285 0.448-0.68 0.147-0.285-0.031 0.074 0.040-0.081 0.042-0.091 0.065-0.155 0.056-0.229-0.024-0.187-0.168-0.234-0.201-0.442-0.046-0.288 0.086-0.308-0.035-0.597 0.375-0.297 0.079-0.181 0.411-0.539 0.262 0.053 0.279 0.118 0.581 0.319l0.197 0.141c0.395-0.037 0.256-0.274 0.665-0.041-0.047 0.139 0.006 0.048-0.060 0.144-0.075 0.052-0.125-0.082-0.13 0.218-0.002 0.122 0.052 0.18 0.174 0.2 0.187 0.031 0.203-0.025 0.322-0.059l0.611-0.199c0.002-0.011 0.007-0.031 0.009-0.043 0.003-0.016 0.008-0.066 0.011-0.083l0.099-0.273c0.092-0.174 0.148-0.181 0.325-0.271l0.519-0.322c0.323-0.258 0.557-0.585 1.036-0.529 0.242 0.028 0.136 0.12 0.37 0.009 0.037 0.204 0.012 0.287 0.245 0.36-0.027-0.014 0.059-0.148-0.114 0.017-0.123 0.118-0.055 0.012-0.111 0.215l0.247 0.016c0.007-0.001 0.029 0.003 0.033-0.009s0.021-0.006 0.030-0.012l0.010 0.19c0.001-0.009 0.013 0.029 0.020 0.043 0.056-0 0.2 0.002 0.241-0.002 0.145-0.016 0.099-0.013 0.166-0.043l0.468 0.327c0.016 0.008 0.063 0.030 0.080 0.038l0.694 0.427c-0.082 0.187-0.006 0.092-0.18 0.24l0.142 0.039c0.006-0.015 0.032 0.013 0.047 0.021l-0.131 0.57c-0.136 0.012 0.071-0.024 0.088 0.209-0.223 0.157-0.31 0.299-0.463 0.502-0.102 0.136-0.099 0.076-0.122 0.28-0.017 0.157-0.129 0.361-0.274 0.452-0.435 0.272 0.032 0.46-0.659 0.489 0.061 0.047 0.035-0.18 0.032 0.088-0.002 0.172-0.149 0.284-0.231 0.428l-0.108 0.247c-0.469-0.034-0.761 0.114-1.14-0.003-0.206-0.063-0.451-0.144-0.688-0.158-0.034-0.176-0.068-0.351-0.101-0.527-0.033-0.178-0.067-0.357-0.101-0.535-0.165 0.273-0.33 0.546-0.494 0.819-0.199 0.332-0.397 0.665-0.596 0.997-0.018 0.004-0.034 0.007-0.050 0.008l-0.044 0.149-0.157 0.264h0.079l-0.133 0.449c0.615 0.595 0.275 0.434 0.279 0.765 0.002 0.181 0.044-0.142 0.062 0.258l-0.323 0.054c-0.063 0.166 0.198 0.733-0.924 0.363l-0.589-0.097c-0.303 0.138-0.441 0.153-0.445 0.473-0 0.014 0.001 0.031 0.001 0.046-0.003 0.129-0.008 0.145-0.018 0.262-0.037 0.417 0.071 0.629-0.295 0.786-0.131 0.056-0.338 0.095-0.442 0.103-0.563 0.046-0.885 0.775-1.53 0.626-0.135 0.59-0.17 0.118-0.256 0.462-0.018-0.007-0.037-0.020-0.050-0.026l-0.846-0.376c-0.251-0.185 0.055 0.032-0.067-0.054-0.378-0.266-0.403-0.413-1.011-0.444-0.131 1.394 0.002 0.457-0.39 1.209-0.054 0.111-0.162 0.313-0.219 0.398-0.132 0.196-0.154 0.18-0.44 0.149-0.163-0.241 0.024-0.135-0.247-0.275-0.354-0.183-0.494-0.167-0.683-0.341-0.257-0.236-0.159-0.103-0.292-0.189-0.245-0.158-0.205-0.448-0.138-0.722 0.058-0.236 0.010-0.427-0.022-0.657zM80.543 30.766c0.119 0.162 0.238 0.325 0.357 0.487l0.544 0.747h-1.238c-0.004-0.076-0.014-0.162-0.028-0.259-0.157 0.039 0.389-0.194 0.416-0.629 0.001-0.013 0.001-0.030 0.001-0.043l-0.053-0.304zM72.771 32h-2.332l0.104-0.557c0.288-1.537 0.572-3.075 0.864-4.612s0.577-3.076 0.874-4.613l0.074-0.381h0.388c0.867 0 1.734 0 2.602 0h0.581l-0.121 0.568c-0.124 0.582-0.243 1.165-0.353 1.75-0.060 0.317-0.119 0.635-0.18 0.952 0.487-0.459 0.973-0.919 1.458-1.38l0.098-0.093c0.020-0.002 0.057 0.009 0.136 0.061l-0.069 0.584c0.084-0.041 0.224-0.456 0.537-0.157 0.224 0.214 0.048 0.336 0.467 0.586l0.237 0.148c0.139 0.087 0.040 0.025 0.142 0.103 0.136 0.103-0.043 0.006 0.177 0.115 0.086 0.043 0.073 0.023 0.164 0.077 0.188 0.112 0.262 0.252 0.486 0.218 0.011 0.072 0.025 0.133 0.038 0.186-0.479 0.431-0.959 0.859-1.436 1.292 0.338 0.477 0.681 0.952 1.022 1.427-0.027 0-0.054-0.004-0.079-0.014l-0.053-0.031c-0.094-0.080 0.048 0.119-0.054-0.077-0.056-0.108 0.044-0.026-0.077-0.198-0.39-0.019-0.233-0.030-0.506 0.069-0.094-0.537-0.422-0.425-0.875-0.476-0.427-0.048-0.186-0.117-0.542-0.212-0.211-0.056-0.29-0.058-0.423-0.173l-0.085-0.077c-0.174 0.129-0.929 0.115-1.14 0.362l0.275 0.316c0.044 0.084 0.052 0.128 0.047 0.237-0.010 0.23-0.122 0.256-0.2 0.451-0.071 0.175-0.136 0.254-0.231 0.295l-0.156-0.229-0.053 0.272c-0.063 0.006-0.135 0.012-0.219 0.021 0.129 0.207 0.001 0.249-0.086 0.383-0.085 0.13-0.152 0.317-0.196 0.454-0.176 0.554-0.106 0.398-0.464 0.512-0.038 0.387-0.021 0.032 0.051 0.197l0.039 0.169c-0.113 0.317-0.085 0.044-0.324 0.292-0.161 0.167-0.023 0.148-0.331 0.288-0.102 0.046-0.455 0.178-0.352 0.012-0.004 0.621-0.063 0.737 0.077 0.881zM77.035 23.44c0.522-0.494 1.045-0.988 1.572-1.476l0.135-0.125h0.184c1.040 0 2.080 0 3.12 0h1.072c-0.014 0.005-0.032 0.010-0.058 0.017-0.245 0.069-0.33 0.366-0.69 0.417 0.118 0.21 0.070 0.104-0.021 0.273-0.046 0.086-0.154 0.22-0.214 0.249-0.047 0.023-0.234 0.035-0.376 0.015-0.281-0.039-0.125 0.051-0.283-0.173-0.12 0.173 0.048 0.11-0.29 0.126-0.284 0.013-0.002 0.009-0.266-0.076-0.26 0.451-0.082 0.033-0.754 0.238l-0.079 0.012c-0.26 0.019-0.158-0.047-0.364 0.193-0.1-0.098-0.109-0.169-0.239-0.212-0.489 0.259-0.225 0.401-0.958 0.338l-0.158 0.164c-0.235 0.136-0.309 0.026-0.531 0.124-0.119 0.052-0.057 0.051-0.269 0.102l-0.203-0.131c-0.155-0.046 0.045 0.012-0.111-0.009-0.173-0.024 0.012 0.020-0.127-0.022-0.035-0.010-0.077-0.037-0.092-0.044zM95.924 20.507h-0.324c-1.654 0-3.309 0-4.963 0h-1.048l0.207-1.027c0.192-0.953 0.385-1.905 0.577-2.858 0.123-0.61 0.242-1.221 0.363-1.831-0.318 0-0.636 0-0.955 0-0.754 0.85-1.503 1.705-2.248 2.563-0.829 0.955-1.674 1.895-2.497 2.854l-0.257 0.299h-0.394c-1.924 0-3.847 0-5.771 0h-1.915l1.275-1.429c0.974-1.091 1.947-2.183 2.927-3.269 0.376-0.417 0.751-0.833 1.126-1.25 0.007 0.019 0.016 0.043 0.030 0.072 0.83 0.048 0.701 0.225 0.865-0.968 0.187 0.034 0.202 0.107 0.292 0.251 0.478-0.067 0.418-0.33 0.759 0.097 0.41-0.006 0.624 0.064 0.775-0.255-0.156-0.183-0.182-0.102-0.337-0.257-0.227-0.228-0.043-0.583-0.4-0.858-0.129-0.099-0.278-0.159-0.427-0.054-0.16 0.112-0.074 0.222-0.364 0.188-0.162-0.019-0.374-0.144-0.482-0.178-0.148-0.047-0.401-0.057-0.652-0.046-0.341-0.352-0.633-0.755-0.862-1.211-0.621-1.235-0.673-2.642-0.412-3.979 0.006-0.030 0.013-0.060 0.022-0.089 0.459-2.239 1.64-4.097 3.547-5.367 0.667-0.445 1.387-0.793 2.139-1.058 0.371 0.047 0.511 0.162 0.926 0.193 0.198 0.311-0.067 0.193 0.416 0.331 0.031 0.79-0.053 0.563 0.12 0.832 0.181 0.281 0.248 0.473 0.242 0.9-0.008 0.582-0.598 1.318-0.059 1.607 0.332 0.090 0.175 0.065 0.423 0.193 0.139 0.072 0.241 0.096 0.391 0.14-0.135 0.178 0.069 0.702-0.064 1.145-0.004 0.013-0.015 0.033-0.018 0.043-0.008 0.022-0.015 0.040-0.023 0.057-0.387 0.114-0.728 0.305-0.985 0.594-0.148 0.022-0.282 0.009-0.382 0.104-0.107 0.192-0.016 0.21-0.146 0.403l-0.14 0.155c-0.079 0.090-0.079 0.086-0.137 0.165 0.276 0.3 0.13 0.33 0.201 0.772 0.042 0.26 0.063 0.098 0.049 0.323-0.010 0.156-0.036 0.265-0.063 0.402l0.315 0.289c0.13 0.284-0.035 0.247-0.147 0.43 0.159 0.103 0.165 0.123 0.307 0.478 0.477-0.067 0.356-0.153 0.512-0.28 0 0 0.906-0.332 1.15-0.246 0.013 0.005 0.030 0.012 0.043 0.017 0.003 0.001 0.121 0.048 0.128 0.052 0.112 0.064 0.021-0.014 0.102 0.077 0.094 0.105-0.079-0.126 0.053 0.079l0.048 0.094c0.111-0.043 0.103 0.067 0.143-0.107 0.040 0.049 0.027 0.035-0.061 0.178 0.152-0.004 0.296-0.003 0.374 0.013 0.178 0.036-0.078 0.092 0.311 0.048 0.057-0.242 0.010-0.124-0.002-0.298l0.151-0.008c-0.181 0.14-0.115 0.035-0.114 0.321 0.279 0.22 0.338 0.18 0.465 0.293l0.042 0.043c0.005 0.005 0.018 0.018 0.024 0.023l0.15 0.135c0.109 0.075-0.182 0.024 0.194 0.089 0.299 0.052 0.314-0.023 0.412-0.178-0.473 0.428-0.314 0.174-0.376 0.466 0.288 0.153 0.726 0.104 0.542 1.066 0.246 0.060 0 0.063 0.539 0.194 0.123 0.030 0.046 0.011 0.123 0.035l0.095 0.033c0.139 0.051 0.081 0.056 0.23 0.078 0.298 0.043 0.251-0.094 0.563 0.030 0.092 0.036 0.029-0.015 0.117 0.063 0.126 0.113 0.147 0.231 0.058 0.357 0.294 0.091 0.208 0.103 0.323 0.333 0.056 0.112 0.017 0.103 0.164 0.186 0.027 0.015 0.091 0.038 0.128 0.055 0.408 0.177 0.18 0.045 0.368 0.077 0.119 0.021 0.051 0.010 0.11 0.039l0.069 0.044c0.011 0.006 0.025 0.016 0.037 0.023l0.079 0.043c0.372 0.216 0.076 0.146 0.398 0.252 0.048 0.196 0.094 0.101 0.516 0.526l0.063 0.060c0.249 0.223 0.297 0.138 0.414 0.245 0.232 0.865 0.206 0.409 0.323 1.009 0.101 0.515 0.207 0.135 0.080 0.622 0.081 0.005 0.161 0.019 0.242 0.038-0.212 1.064-0.423 2.128-0.633 3.192l-0.137 0.691h-0.093c-0.075-0.048-0.15-0.086-0.21-0.096-0.031 0.035-0.056 0.067-0.077 0.096zM64.304 22.145c0.383 1.542 0.752 3.088 1.139 4.629 0.389 1.548 0.787 3.093 1.189 4.638l0.153 0.589h-0.608c-0.957 0-1.914 0-2.871 0h-0.369l-0.088-0.359c-0.24-0.982-0.467-1.968-0.684-2.955-0.132-0.602-0.265-1.203-0.4-1.804-0.39 0.647-0.78 1.293-1.165 1.942-0.582 0.983-1.178 1.958-1.756 2.943l-0.11 0.187c-0.195-0.267-0.697-0.78-0.863-1.034-0.061-0.588-0.485-0.463-0.595-0.81-0.083-0.261 0.036 0.059-0.003-0.1-0.217 0.075-0.241-0.013-0.386 0.174-0.061-0.329-0.119-0.305-0.424-0.344 0.239-0.221 0.012-0.093-0.151-0.311 0.605-0.963 1.212-1.925 1.814-2.89 0.971-1.556 1.968-3.096 2.949-4.646l0.138-0.219h0.648l0.002 0.024c0.19-0.045 0.397 0.067 0.564 0.149l0.279 0.313c0.021 0.43-0.382 0.644-0.010 0.751-0.058 0.066 0.112 0.206-0.161 0.099 0.24 0.015 0.383-0.174 0.608-0.218 0.187-0.037 0.419 0.022 0.419 0.022 0.134-0.004 0.686-0.682 0.687-0.684 0.020-0.031 0.037-0.059 0.052-0.084zM63.327 20.507h-4.574l0.198-1.021c0.197-1.014 0.396-2.027 0.597-3.040 0.036 0.005 0.075 0.009 0.12 0.012 0.158-0.035 0.204-0.124 0.351-0.19 0.231-0.104 0.264-0.065 0.471-0.183 0.064-0.589-0.038-0.103-0.189-0.558-0.078-0.237-0.046-0.558-0.067-0.811-0.071-0.043-0.118-0.060-0.174-0.083l-0.136-0.075c0.147-0.738 0.295-1.476 0.443-2.214 0.264-1.319 0.531-2.637 0.796-3.956 0.288 0.142 0.644 0.265 1.080-0.196l0.057-0.065c0.63-0.729 0.372-0.999 0.624-1.354 0.172-0.241 0.545-0.131 0.513-0.548-0.014-0.183-0.137-0.407-0.065-0.613 0.060-0.172-0.021-0.11 0.134-0.175 0.084-0.178 0.1-0.1 0.39-0.128 0.174-0.017 0.375-0.047 0.563-0.052 0.035 0.051 0.022 0.049 0.055 0.127l0.071 0.165 0.31-0.085c0.284-0.016 0.384 0.134 0.706 0.147-0.051-0.105-0.036-0.043-0.081-0.099-0.138-0.173-0.002 0.109-0.108-0.143 0.242 0 0.393-0.035 0.467-0.237 0.031-0.085 0.104-0.473 0.104-0.595-0.073-0.038-0.139-0.046-0.239-0.072-0.016-0.004-0.135-0.033-0.148-0.038-0.1-0.039-0.072-0.028-0.123-0.066-0.155-0.115-0.292-0.356-0.4-0.497-0.233-0.303-0.094-0.638-0.105-1.041-0.432-0.006-0.713 0.44-1.171 0.413-0.26-0.016-0.238-0.059-0.472-0.123-0.211-0.058-0.086-0.027-0.184-0.066-0.009-0.004-0.093-0.039-0.126-0.052-0.014-0.006-0.030-0.011-0.044-0.016-0.472-0.189-0.814-0.431-1.024-0.484-0.344-0.087-0.276-0.111-0.576-0.318-0.21-0.146-0.258-0.27-0.341-0.502-0.093-0.263 0.069-0.428 0.115-0.656-0.246-0.322-0.372-0.449-0.536-0.833l-0.020-0.058h8.077c-0.060 0.141-0.036 0.042-0.11 0.183-0.195 0.372-0.495 0.523-0.503 0.757-0.006 0.162 0.008 0.102 0.026 0.145 0.106 0.039-0.016 0.039 0.12-0.010l0.693-0.372c0.253-0.090 0.249-0.307 0.624-0.296 0.006 0 0.024 0.002 0.030 0.002s0.024-0.001 0.032-0.001l0.259-0.033c0.013-0.001 0.030-0.003 0.044-0.004 0.019-0.002 0.076-0.011 0.097-0.013 0.434-0.051 0.375 0.044 0.709 0.044 0.698-0.002 0.019-0.195 0.869 0.15l0.222 0.077c0.014 0.005 0.029 0.012 0.043 0.017s0.029 0.013 0.043 0.018c0.214 0.091 0.355 0.199 0.546 0.102l0.2 0.342c0.174 0.164 0.295 0.174 0.386 0.337 0.014 0.025 0.060 0.161 0.222 0.248 0.094 0.050 0.080 0.054 0.228 0.069-0.018 0.171-0.028 0.152-0.001 0.305l0.026 0.086c0.003 0.009 0.010 0.025 0.013 0.033 0.036 0.112 0.095 0.261-0.029 0.354 0.484-0.030 0.203 0.101 0.219 0.148 0.047 0.135 0.119 0.127 0.227 0.224-0.090 0.205-0.032 0.127-0.117 0.136 0.061-0.004 0.081-0.018 0.145-0.001 0.116 0.030 0.114 0.042 0.163 0.070 0.067 0.676 0.017-0.044 0.191 0.878 0.016 0.087 0.021 0.126 0.024 0.147-0.085 0.422-0.169 0.844-0.252 1.267l-0.137 0.691h-0.705c-1.631 0-3.262 0-4.894 0-0.428 2.151-0.866 4.301-1.296 6.452-0.406 2.032-0.813 4.063-1.211 6.097-0.113 0.047-0.106-0.010-0.319 0.203l-0.655 0.603c-0.145 0.11 0.173 0-0.114 0.070 0.002 0.141-0.006-0.003-0.014-0.003l-0.756 0.121c-0.282 0.143-0.159 0.083-0.269 0.335l-0.354 0.401zM48.552 15.953c0.212 0.938 0.425 1.877 0.638 2.815l-0.31-0.006c-0.091 0.34-0.075 0.39-0.091 0.782 0.356 0.193 0.797 0.471 0.466 0.921l-0.034 0.042h-2.862c-0.003-0.166-0.026-0.329 0.089-0.403-0.053-0.152 0.058-0.021-0.166-0.128 0.021-0.267-0.048-0.248 0.121-0.325l-0.365-0.291c-0.171-0.191-0.322-0.29-0.215-0.636 0.103-0.334 0.678-0.429 1.051-0.64l-0.060-0.086c-0.177-0.314-0.139-0.571 0.116-0.813 0.153-0.144 0.213-0.172 0.388-0.251 0.236-0.108 0.219-0.198 0.5-0.12-0.166-0.337 0.259-0.487 0.482-0.654 0.094-0.070 0.18-0.133 0.253-0.206zM46.004 22.86c0.186-0.289 0.372-0.579 0.557-0.869l0.139-0.217h0.478c-0.010 0.272-0.016 0.227-0.167 0.395-0.394 0.436-0.119 0.753-0.933 0.697-0.026-0.002-0.050-0.004-0.072-0.007zM49.193 18.78l0.045 0.2c-0.081-0.133-0.063-0.181-0.045-0.2zM49.919 22.207c0.183 0.701 0.364 1.403 0.545 2.104-0.031 0.011-0.069 0.024-0.115 0.043l0.017 0.452c-0.206 0.043-0.298 0.119-0.339 0.231-0.006 0.016-0.086 0.238-0.088 0.243-0.046 0.16-0.020 0.226-0.052 0.379-0.056 0.259-0.011 0.020-0.112 0.24-0.072 0.156-0.007 0.002-0.048 0.133l-0.038 0.142c-0.005 0.015-0.010 0.030-0.015 0.045-0.112 0.347-0.078 0.323-0.034 0.651-0.423 0.182-0.002 0.127-0.595 0.479 0.012 0.138 0.025 0.406-0.095 0.585-0.324-0-0.072 0.019-0.336-0.196-0.168-0.137-0.254-0.322-0.352-0.525l-0.059-0.124c-0.016-0.027-0.1-0.128-0.225-0.153-0.225-0.044-0.303-0.046-0.458-0.139-0.015-0.064-0.030-0.127-0.044-0.191-0.017-0.077-0.035-0.154-0.052-0.232l-0.153 0.248c-0.156-0.129-0.129-0.203-0.099-0.591l-0.133-0.12c-0.051-0.093-0.036-0.112-0.041-0.259-0.045-0.003-0.194-0.007-0.237-0.019-0.136-0.039-0.108-0.078-0.256-0.156l-1.104-0.279c0.147-0.38-0.175 0.293 0.082-0.116 0.105-0.167 0.013 0.043 0.043-0.078 0.028-0.115-0.087 0.109 0.009-0.222 0.078-0.269 0.015 0.090 0.093-0.218 0.056-0.22 0.029 0.029 0.008-0.075-0.034-0.17-0.22-0.305-0.416-0.411l0.352-0.548c0.033-0.001 0.061-0.003 0.083-0.006 0.369-0.052 0.036-0.015 0.232-0.079 0.23-0.076 0.12-0.027 0.274-0.024 0.512 0.010 0.245-0.45 1.198-0.055 0.070 0.029 0.168 0.086 0.232 0.13 0.268 0.187 0.383 0.244 0.698 0.243l0.273 0.051c0.163-0.263 0.032-0.225 0.315-0.331 0.313-0.118 0.476-0.112 0.499-0.379 0.006-0.070 0.011-0.174 0.029-0.255l0.231-0.361c0.134-0.117 0.133-0.097 0.28-0.253l0.004-0.004zM88.010 30.265c-0.312 0.501-0.616 1.008-0.925 1.511l-0.138 0.224h-0.263c-0.902 0-1.805 0-2.707 0h-0.85l0.451-0.72c0.974-1.553 1.971-3.092 2.948-4.643 0.98-1.557 1.987-3.096 2.978-4.646l0.139-0.217h0.258c0.832 0 1.664 0 2.496 0h0.368l0.089 0.357c0.384 1.55 0.791 3.094 1.189 4.64 0.399 1.549 0.815 3.093 1.228 4.638l0.158 0.591h-0.612c-0.928 0-1.856 0-2.784 0h-0.367l-0.089-0.357c-0.114-0.459-0.223-0.919-0.335-1.379-1.077 0-2.154 0-3.231 0zM32.1 28.212c-0.053 0.286-0.106 0.573-0.159 0.859 0.483 0 0.966 0 1.449 0 0.376 0 0.91-0.095 0.998-0.535 0.004-0.021 0.010-0.041 0.016-0.060 0.003-0.035 0.002-0.073-0.011-0.098-0.075-0.143-0.548-0.166-0.677-0.166-0.539 0-1.078 0-1.617 0zM89.749 27.374c0.28 0 0.56 0 0.841 0-0.062-0.257-0.124-0.515-0.18-0.774-0.016-0.076-0.033-0.153-0.050-0.229-0.078 0.125-0.155 0.25-0.232 0.376-0.127 0.209-0.253 0.418-0.38 0.627z"></path>
</symbol>
</defs>
</svg>
